<svg version="1.1" id="Layer_1" xmlns="http://www.w3.org/2000/svg" xmlns:xlink="http://www.w3.org/1999/xlink" x="0px" y="0px"
	 viewBox="0 0 1073 1223" enable-background="new 0 0 1073 1223" xml:space="preserve">
<path fill="currentColor" opacity="1.000000" stroke="none" 
	d="
M670.000000,1224.000000 
	C496.306458,1224.000000 322.612946,1224.000000 148.539825,1223.680176 
	C233.601456,1137.913086 319.042725,1052.465942 404.483704,967.018494 
	C409.000397,962.501465 409.000610,962.499878 404.332764,957.831970 
	C379.112823,932.611816 353.888306,907.396301 328.673431,882.171021 
	C306.646271,860.134766 284.629883,838.087708 262.315643,815.752136 
	C260.969788,817.251099 259.805450,818.676575 258.510681,819.971680 
	C174.375076,904.126770 90.232651,988.275085 6.052429,1072.385620 
	C4.607325,1073.829590 2.694535,1074.805664 0.999996,1076.000000 
	C1.000000,717.780823 1.000000,359.561707 1.000000,1.000000 
	C81.026543,1.000000 161.053574,1.000000 241.459991,1.324884 
	C224.045090,19.443110 206.268265,37.253990 188.433334,55.006508 
	C186.321884,57.108196 184.968338,58.605076 187.836151,61.435863 
	C205.508331,78.879997 223.051331,96.455902 240.525208,114.098984 
	C242.908691,116.505524 244.356339,116.230232 246.592209,113.976013 
	C263.961761,96.463913 281.388947,79.008095 298.929138,61.667217 
	C301.499817,59.125740 301.226471,57.611877 298.813385,55.225586 
	C283.289825,39.874344 267.882538,24.405376 252.467346,8.944869 
	C249.902298,6.372290 247.485382,3.652017 245.000000,0.999998 
	C521.230103,1.000000 797.460205,1.000000 1074.000000,1.000000 
	C1074.000000,98.693314 1074.000000,196.386963 1073.645996,294.536194 
	C1071.903198,293.869934 1070.398682,292.863861 1069.142456,291.609283 
	C1038.379639,260.888702 1007.644714,230.140305 976.897400,199.404266 
	C975.643738,198.151093 974.318665,196.969345 973.035339,195.762329 
	C972.322449,196.339081 971.910095,196.615265 971.565735,196.959488 
	C939.405273,229.108261 907.292725,261.305206 875.025024,293.346008 
	C871.961792,296.387726 873.328674,297.891052 875.580627,300.137451 
	C906.950195,331.428436 938.315186,362.724335 969.537415,394.161957 
	C972.607666,397.253418 974.290161,397.367218 977.424622,394.208954 
	C1008.284058,363.115265 1039.305298,332.182159 1070.296021,301.218872 
	C1071.450439,300.065552 1072.761719,299.069366 1074.000000,298.000000 
	C1074.000000,606.569153 1074.000000,915.138245 1074.000000,1224.000000 
	C940.306641,1224.000000 806.613037,1224.000000 672.529358,1223.697510 
	C672.796875,1222.611572 673.454468,1221.828003 674.416260,1220.913330 
	C760.936096,1134.571533 847.151672,1048.360596 933.945374,961.571594 
	C932.140198,960.123230 930.728577,959.192993 929.557495,958.022217 
	C758.075623,786.574280 586.611511,615.108521 415.138275,443.651917 
	C413.967743,442.481476 412.682281,441.426025 411.182648,440.008789 
	C409.227112,440.681580 407.232330,441.354706 405.896118,442.687927 
	C359.647186,488.831757 313.459778,535.037231 267.268890,581.239319 
	C266.114929,582.393494 265.020782,583.607483 263.245209,585.484436 
	C388.948120,711.186096 514.486328,836.723083 640.955322,963.190735 
	C602.359863,1001.784363 563.890442,1040.252075 525.078491,1079.062134 
	C526.138062,1079.987061 527.595154,1081.116211 528.888672,1082.409058 
	C574.743042,1128.240723 620.584045,1174.085693 666.413025,1219.942749 
	C667.686584,1221.217285 668.807739,1222.644165 670.000000,1224.000000 
M778.500000,449.000000 
	C801.241394,471.740356 824.025635,494.438202 846.669434,517.275330 
	C849.474060,520.103882 851.114746,520.560181 854.205444,517.446289 
	C885.545959,485.870850 917.016785,454.424347 948.572021,423.063385 
	C951.429382,420.223602 951.277222,418.636322 948.504333,415.879364 
	C916.956482,384.510956 885.479065,353.070923 854.150330,321.483917 
	C850.949585,318.256775 849.315186,319.066193 846.615417,321.795715 
	C829.814636,338.781494 812.870300,355.625275 795.974487,372.517120 
	C781.480835,387.007416 767.060425,401.572327 752.433594,415.927002 
	C749.564392,418.742798 749.649658,420.393036 752.485657,423.118317 
	C761.134094,431.429382 769.514954,440.018860 778.500000,449.000000 
M798.000000,511.499969 
	C783.742432,497.242401 769.485901,482.983734 755.226807,468.727631 
	C746.978760,460.481293 738.652954,452.310638 730.523193,443.949341 
	C728.214417,441.574768 726.640503,441.539551 724.456116,443.978973 
	C721.749390,447.001648 718.742432,449.755280 715.868835,452.628723 
	C687.119263,481.375946 658.402893,510.156586 629.568054,538.817993 
	C626.879822,541.490112 626.420349,543.079651 629.358276,545.999023 
	C661.033997,577.474365 692.602112,609.058411 724.099243,640.712585 
	C726.731567,643.358032 728.297424,643.328003 730.912537,640.699951 
	C762.410889,609.046997 793.977600,577.461548 825.653931,545.986816 
	C828.607788,543.051697 828.133301,541.428223 825.420593,538.803345 
	C816.321472,529.998718 807.455322,520.953247 798.000000,511.499969 
M742.000000,376.500031 
	C766.850342,351.652069 791.686829,326.790253 816.575684,301.980957 
	C818.698425,299.864960 820.001465,298.382385 817.159485,295.558350 
	C788.806946,267.384888 760.561829,239.103271 732.352783,210.786026 
	C730.204956,208.629868 728.798706,208.626923 726.648560,210.784317 
	C697.494080,240.038269 668.269043,269.221954 638.960083,298.524384 
	C654.941528,314.484314 670.851746,330.366760 686.754639,346.256653 
	C699.949524,359.440765 713.191162,372.579102 726.276733,385.870880 
	C728.730530,388.363342 730.372925,388.521973 732.711792,385.870758 
	C735.460754,382.754639 738.555298,379.943451 742.000000,376.500031 
M583.500000,489.000000 
	C589.979248,495.481567 596.590576,501.838623 602.875977,508.503113 
	C605.570312,511.359955 607.218384,511.433899 610.060608,508.570709 
	C637.761047,480.665741 665.569153,452.867126 693.462219,425.154633 
	C696.189209,422.445282 696.518860,420.862671 693.609497,417.975220 
	C665.701721,390.277618 637.887268,362.485168 610.208923,334.558441 
	C607.125732,331.447571 605.486572,331.886505 602.672058,334.719299 
	C575.076538,362.493805 547.402588,390.191071 519.600952,417.759003 
	C516.564697,420.769745 516.766052,422.418488 519.675659,425.297272 
	C540.875061,446.272583 561.911865,467.412262 583.500000,489.000000 
M485.504059,221.122864 
	C459.109344,247.654373 432.714630,274.185883 406.266510,300.771027 
	C431.579803,326.081238 457.047180,351.475403 482.391296,376.991974 
	C485.003723,379.622192 486.508453,379.115540 488.820892,376.762329 
	C499.557373,365.836700 510.441772,355.056366 521.274719,344.225494 
	C535.835693,329.667114 550.398071,315.110107 564.965088,300.547333 
	C538.523071,274.085236 512.278259,247.820450 485.504059,221.122864 
M298.428009,180.952789 
	C320.045715,203.049545 341.663452,225.146301 362.325958,246.266693 
	C385.582062,223.011047 408.507355,200.086197 431.549194,177.044830 
	C411.139221,156.640793 389.191162,134.791672 367.392120,112.794876 
	C364.512421,109.889053 363.028839,111.411118 360.972717,113.474159 
	C340.870056,133.644653 320.722687,153.770554 300.588684,173.909775 
	C299.293823,175.204956 297.848541,176.396652 296.815735,177.875671 
	C296.537903,178.273529 297.521912,179.552551 298.428009,180.952789 
z"/>
<path fill="#009EDB" opacity="1.000000" stroke="none" 
	d="
M0.999996,1076.375000 
	C2.694535,1074.805664 4.607325,1073.829590 6.052429,1072.385620 
	C90.232651,988.275085 174.375076,904.126770 258.510681,819.971680 
	C259.805450,818.676575 260.969788,817.251099 262.315643,815.752136 
	C284.629883,838.087708 306.646271,860.134766 328.673431,882.171021 
	C353.888306,907.396301 379.112823,932.611816 404.332764,957.831970 
	C409.000610,962.499878 409.000397,962.501465 404.483704,967.018494 
	C319.042725,1052.465942 233.601456,1137.913086 148.080139,1223.680176 
	C147.555557,1224.000000 147.111099,1224.000000 146.244888,1223.675049 
	C98.435966,1175.948608 51.050068,1128.545898 3.650919,1081.156372 
	C2.849570,1080.355347 1.887256,1079.715210 1.000015,1079.000000 
	C1.000000,1078.250000 1.000000,1077.500000 0.999996,1076.375000 
z"/>
<path fill="#36E812" opacity="1.000000" stroke="none" 
	d="
M1074.000000,297.625000 
	C1072.761719,299.069366 1071.450439,300.065552 1070.296021,301.218872 
	C1039.305298,332.182159 1008.284058,363.115265 977.424622,394.208954 
	C974.290161,397.367218 972.607666,397.253418 969.537415,394.161957 
	C938.315186,362.724335 906.950195,331.428436 875.580627,300.137451 
	C873.328674,297.891052 871.961792,296.387726 875.025024,293.346008 
	C907.292725,261.305206 939.405273,229.108261 971.565735,196.959488 
	C971.910095,196.615265 972.322449,196.339081 973.035339,195.762329 
	C974.318665,196.969345 975.643738,198.151093 976.897400,199.404266 
	C1007.644714,230.140305 1038.379639,260.888702 1069.142456,291.609283 
	C1070.398682,292.863861 1071.903198,293.869934 1073.645996,294.995911 
	C1074.000000,295.750000 1074.000000,296.500000 1074.000000,297.625000 
z"/>
<path fill="#FFFFFF" opacity="1.000000" stroke="none" 
	d="
M1.000015,1079.468628 
	C1.887256,1079.715210 2.849570,1080.355347 3.650919,1081.156372 
	C51.050068,1128.545898 98.435966,1175.948608 145.911560,1223.675049 
	C97.739670,1224.000000 49.479336,1224.000000 1.000000,1224.000000 
	C1.000000,1175.979248 1.000000,1127.958252 1.000015,1079.468628 
z"/>
<path fill="#36E812" opacity="1.000000" stroke="none" 
	d="
M244.625000,0.999998 
	C247.485382,3.652017 249.902298,6.372290 252.467346,8.944869 
	C267.882538,24.405376 283.289825,39.874344 298.813385,55.225586 
	C301.226471,57.611877 301.499817,59.125740 298.929138,61.667217 
	C281.388947,79.008095 263.961761,96.463913 246.592209,113.976013 
	C244.356339,116.230232 242.908691,116.505524 240.525208,114.098984 
	C223.051331,96.455902 205.508331,78.879997 187.836151,61.435863 
	C184.968338,58.605076 186.321884,57.108196 188.433334,55.006508 
	C206.268265,37.253990 224.045090,19.443110 241.919693,1.324884 
	C242.750000,1.000000 243.500000,1.000000 244.625000,0.999998 
z"/>
<path fill="#009EDB" opacity="1.000000" stroke="none" 
	d="
M674.112061,1221.044434 
	C673.454468,1221.828003 672.796875,1222.611572 672.069641,1223.697510 
	C671.555542,1224.000000 671.111084,1224.000000 670.333313,1224.000000 
	C668.807739,1222.644165 667.686584,1221.217285 666.413025,1219.942749 
	C620.584045,1174.085693 574.743042,1128.240723 528.888672,1082.409058 
	C527.595154,1081.116211 526.138062,1079.987061 525.078491,1079.062134 
	C563.890442,1040.252075 602.359863,1001.784363 640.955322,963.190735 
	C514.486328,836.723083 388.948120,711.186096 263.245209,585.484436 
	C265.020782,583.607483 266.114929,582.393494 267.268890,581.239319 
	C313.459778,535.037231 359.647186,488.831757 405.896118,442.687927 
	C407.232330,441.354706 409.227112,440.681580 411.025574,440.433411 
	C409.830261,443.538086 408.986694,446.370697 407.150299,448.214355 
	C363.161560,492.376953 319.065491,536.432617 274.995087,580.513916 
	C273.615906,581.893372 272.302399,583.338440 269.631989,586.148682 
	C271.807739,587.569946 273.903351,588.482849 275.408417,589.986755 
	C396.247101,710.740112 517.039734,831.539673 637.835266,952.336304 
	C644.961060,959.462219 644.932617,964.566406 637.730957,971.768372 
	C603.790771,1005.709717 569.848328,1039.648804 535.914429,1073.596313 
	C534.542175,1074.969238 533.248047,1076.420166 531.829651,1077.928101 
	C532.788025,1079.058838 533.372620,1079.854980 534.061890,1080.546631 
	C580.739929,1127.384521 627.426331,1174.214111 674.112061,1221.044434 
z"/>
<path fill="#009EDB" opacity="1.000000" stroke="none" 
	d="
M674.416260,1220.913330 
	C627.426331,1174.214111 580.739929,1127.384521 534.061890,1080.546631 
	C533.372620,1079.854980 532.788025,1079.058838 531.829651,1077.928101 
	C533.248047,1076.420166 534.542175,1074.969238 535.914429,1073.596313 
	C569.848328,1039.648804 603.790771,1005.709717 637.730957,971.768372 
	C644.932617,964.566406 644.961060,959.462219 637.835266,952.336304 
	C517.039734,831.539673 396.247101,710.740112 275.408417,589.986755 
	C273.903351,588.482849 271.807739,587.569946 269.631989,586.148682 
	C272.302399,583.338440 273.615906,581.893372 274.995087,580.513916 
	C319.065491,536.432617 363.161560,492.376953 407.150299,448.214355 
	C408.986694,446.370697 409.830261,443.538086 411.293396,440.741547 
	C412.682281,441.426025 413.967743,442.481476 415.138275,443.651917 
	C586.611511,615.108521 758.075623,786.574280 929.557495,958.022217 
	C930.728577,959.192993 932.140198,960.123230 933.945374,961.571594 
	C847.151672,1048.360596 760.936096,1134.571533 674.416260,1220.913330 
z"/>
<path fill="#36E812" opacity="1.000000" stroke="none" 
	d="
M778.250000,448.750000 
	C769.514954,440.018860 761.134094,431.429382 752.485657,423.118317 
	C749.649658,420.393036 749.564392,418.742798 752.433594,415.927002 
	C767.060425,401.572327 781.480835,387.007416 795.974487,372.517120 
	C812.870300,355.625275 829.814636,338.781494 846.615417,321.795715 
	C849.315186,319.066193 850.949585,318.256775 854.150330,321.483917 
	C885.479065,353.070923 916.956482,384.510956 948.504333,415.879364 
	C951.277222,418.636322 951.429382,420.223602 948.572021,423.063385 
	C917.016785,454.424347 885.545959,485.870850 854.205444,517.446289 
	C851.114746,520.560181 849.474060,520.103882 846.669434,517.275330 
	C824.025635,494.438202 801.241394,471.740356 778.250000,448.750000 
z"/>
<path fill="#36E812" opacity="1.000000" stroke="none" 
	d="
M798.250000,511.750000 
	C807.455322,520.953247 816.321472,529.998718 825.420593,538.803345 
	C828.133301,541.428223 828.607788,543.051697 825.653931,545.986816 
	C793.977600,577.461548 762.410889,609.046997 730.912537,640.699951 
	C728.297424,643.328003 726.731567,643.358032 724.099243,640.712585 
	C692.602112,609.058411 661.033997,577.474365 629.358276,545.999023 
	C626.420349,543.079651 626.879822,541.490112 629.568054,538.817993 
	C658.402893,510.156586 687.119263,481.375946 715.868835,452.628723 
	C718.742432,449.755280 721.749390,447.001648 724.456116,443.978973 
	C726.640503,441.539551 728.214417,441.574768 730.523193,443.949341 
	C738.652954,452.310638 746.978760,460.481293 755.226807,468.727631 
	C769.485901,482.983734 783.742432,497.242401 798.250000,511.750000 
z"/>
<path fill="#36E812" opacity="1.000000" stroke="none" 
	d="
M741.750000,376.750031 
	C738.555298,379.943451 735.460754,382.754639 732.711792,385.870758 
	C730.372925,388.521973 728.730530,388.363342 726.276733,385.870880 
	C713.191162,372.579102 699.949524,359.440765 686.754639,346.256653 
	C670.851746,330.366760 654.941528,314.484314 638.960083,298.524384 
	C668.269043,269.221954 697.494080,240.038269 726.648560,210.784317 
	C728.798706,208.626923 730.204956,208.629868 732.352783,210.786026 
	C760.561829,239.103271 788.806946,267.384888 817.159485,295.558350 
	C820.001465,298.382385 818.698425,299.864960 816.575684,301.980957 
	C791.686829,326.790253 766.850342,351.652069 741.750000,376.750031 
z"/>
<path fill="#36E812" opacity="1.000000" stroke="none" 
	d="
M583.250000,488.750000 
	C561.911865,467.412262 540.875061,446.272583 519.675659,425.297272 
	C516.766052,422.418488 516.564697,420.769745 519.600952,417.759003 
	C547.402588,390.191071 575.076538,362.493805 602.672058,334.719299 
	C605.486572,331.886505 607.125732,331.447571 610.208923,334.558441 
	C637.887268,362.485168 665.701721,390.277618 693.609497,417.975220 
	C696.518860,420.862671 696.189209,422.445282 693.462219,425.154633 
	C665.569153,452.867126 637.761047,480.665741 610.060608,508.570709 
	C607.218384,511.433899 605.570312,511.359955 602.875977,508.503113 
	C596.590576,501.838623 589.979248,495.481567 583.250000,488.750000 
z"/>
<path fill="#36E812" opacity="1.000000" stroke="none" 
	d="
M485.768738,221.339264 
	C512.278259,247.820450 538.523071,274.085236 564.965088,300.547333 
	C550.398071,315.110107 535.835693,329.667114 521.274719,344.225494 
	C510.441772,355.056366 499.557373,365.836700 488.820892,376.762329 
	C486.508453,379.115540 485.003723,379.622192 482.391296,376.991974 
	C457.047180,351.475403 431.579803,326.081238 406.266510,300.771027 
	C432.714630,274.185883 459.109344,247.654373 485.768738,221.339264 
z"/>
<path fill="#36E812" opacity="1.000000" stroke="none" 
	d="
M298.177368,180.689941 
	C297.521912,179.552551 296.537903,178.273529 296.815735,177.875671 
	C297.848541,176.396652 299.293823,175.204956 300.588684,173.909775 
	C320.722687,153.770554 340.870056,133.644653 360.972717,113.474159 
	C363.028839,111.411118 364.512421,109.889053 367.392120,112.794876 
	C389.191162,134.791672 411.139221,156.640793 431.549194,177.044830 
	C408.507355,200.086197 385.582062,223.011047 362.325958,246.266693 
	C341.663452,225.146301 320.045715,203.049545 298.177368,180.689941 
z"/>
</svg>