<svg version="1.1" id="Layer_1" xmlns="http://www.w3.org/2000/svg" xmlns:xlink="http://www.w3.org/1999/xlink" x="0px" y="0px"
	 viewBox="0 0 3000 1667" enable-background="new 0 0 3000 1667" xml:space="preserve">
<path fill="currentColor" opacity="1.000000" stroke="none" 
	d="
M1792.000000,1670.000000 
	C1194.666626,1670.000000 598.333313,1670.000000 2.000000,1670.000000 
	C2.000000,1114.000000 2.000000,558.000000 2.000000,2.000000 
	C1002.000000,2.000000 2002.000000,2.000000 3002.000000,2.000000 
	C3002.000000,558.000000 3002.000000,1114.000000 3002.000000,1670.000000 
	C2599.000000,1670.000000 2196.000000,1670.000000 1792.000000,1670.000000 
M1002.193604,1341.193848 
	C1054.009521,1289.377930 1105.825439,1237.562012 1157.176880,1186.210571 
	C982.493713,1011.527466 808.401550,837.435364 635.621704,664.655579 
	C587.393005,712.885620 538.759521,761.520386 489.538116,810.743164 
	C613.696655,934.900818 738.803955,1060.007324 864.635193,1185.837646 
	C826.268982,1224.205933 787.953369,1262.523560 750.273804,1300.205078 
	C799.261902,1349.192139 847.708374,1397.637817 896.727905,1446.656372 
	C931.034058,1412.351196 966.113831,1377.272583 1002.193604,1341.193848 
M1925.675781,951.000000 
	C1925.675781,965.864868 1925.675781,980.729736 1925.675781,995.417725 
	C1944.445801,997.438110 2010.326782,996.696350 2017.954834,994.304199 
	C2017.954834,901.600769 2017.954468,808.656250 2017.978516,715.711670 
	C2017.978638,715.502258 2018.305298,715.231873 2018.540894,715.099548 
	C2018.823608,714.940735 2019.172607,714.899719 2019.561890,714.787903 
	C2020.160278,715.530823 2020.871826,716.236938 2021.378052,717.068176 
	C2043.705566,753.726746 2065.981201,790.416931 2088.334717,827.059692 
	C2121.434082,881.317383 2154.678955,935.486755 2187.566162,989.872375 
	C2190.634766,994.946838 2193.924805,996.429321 2199.477051,996.375854 
	C2224.803467,996.132080 2250.133301,996.289490 2275.461914,996.235657 
	C2277.991943,996.230286 2280.520996,995.770996 2283.052979,995.522034 
	C2283.052979,849.345947 2283.052979,703.883179 2283.052979,558.340027 
	C2252.630127,558.340027 2222.848877,558.340027 2191.989746,558.340027 
	C2191.989746,653.354553 2191.989746,747.649414 2191.989746,844.216431 
	C2189.926270,841.070068 2189.205078,840.037048 2188.551025,838.963196 
	C2162.758057,796.622864 2136.983887,754.270874 2111.179688,711.937378 
	C2081.216797,662.781555 2051.158447,613.683594 2021.360474,564.428284 
	C2018.455444,559.626648 2015.496948,557.400513 2009.650513,557.474731 
	C1983.992798,557.800537 1958.328613,557.595032 1932.666870,557.657715 
	C1930.478760,557.663025 1928.291870,558.224976 1925.675781,558.587769 
	C1925.675781,689.110596 1925.675781,819.055298 1925.675781,951.000000 
M1519.678955,649.000000 
	C1519.678955,716.325500 1519.606079,783.651184 1519.766602,850.976318 
	C1519.787842,859.908875 1520.420532,868.925232 1521.747437,877.755859 
	C1530.795532,937.971069 1565.845581,976.207520 1623.098511,993.901245 
	C1664.016968,1006.546814 1705.858521,1005.835632 1747.256226,995.626953 
	C1777.050659,988.279663 1802.415405,972.954163 1822.526489,949.320435 
	C1846.078979,921.642334 1855.966064,888.957275 1856.150513,853.465942 
	C1856.647583,757.812927 1856.325928,662.155640 1856.294556,566.500061 
	C1856.293701,563.653931 1855.909180,560.807983 1855.726318,558.278076 
	C1824.857544,558.278076 1795.012817,558.278076 1764.314453,558.278076 
	C1764.314453,562.840576 1764.314453,566.779053 1764.314453,570.717468 
	C1764.314453,664.039978 1764.372925,757.362610 1764.213379,850.684814 
	C1764.199341,858.942627 1763.591309,867.378662 1761.836304,875.421509 
	C1756.021240,902.070435 1740.612305,919.828735 1713.284668,926.430725 
	C1697.797607,930.172119 1682.309326,930.725342 1666.898071,927.436890 
	C1638.674927,921.414612 1619.591431,905.264526 1613.853149,876.021240 
	C1611.946289,866.302917 1610.497681,856.308899 1610.470703,846.436462 
	C1610.218384,754.114563 1610.324341,661.791626 1610.308960,569.468994 
	C1610.308228,565.632263 1610.131470,561.795593 1610.028442,557.627441 
	C1579.194458,557.622681 1549.708496,557.593262 1519.678833,557.642761 
	C1519.678833,588.412354 1519.678833,617.706177 1519.678955,649.000000 
M416.739075,1109.739136 
	C352.972900,1173.505371 289.206696,1237.271729 226.683014,1299.795532 
	C275.942657,1349.053955 324.340729,1397.450684 371.350769,1444.459473 
	C457.370514,1358.441284 544.225464,1271.587769 630.241272,1185.573486 
	C582.713440,1138.049927 534.298279,1089.639038 485.557434,1040.902588 
	C463.429077,1063.036743 440.584045,1085.887939 416.739075,1109.739136 
M1519.643188,1069.269043 
	C1519.643188,1194.059448 1519.643188,1318.849731 1519.643188,1444.103882 
	C1549.194580,1444.103882 1577.554077,1445.440796 1605.735107,1443.768799 
	C1641.746216,1441.632324 1666.703003,1422.832397 1676.706665,1388.302612 
	C1679.709351,1377.939087 1681.408569,1366.827881 1681.477783,1356.044922 
	C1681.903687,1289.739136 1681.763672,1223.429321 1681.605835,1157.121216 
	C1681.584595,1148.205200 1681.090820,1139.177979 1679.633545,1130.398438 
	C1674.996582,1102.462524 1661.512573,1080.706909 1634.496704,1069.167603 
	C1623.373047,1064.416260 1611.599243,1062.307373 1599.574463,1062.141602 
	C1581.917725,1061.897949 1564.255249,1062.078247 1546.595215,1062.078979 
	C1539.264648,1062.079346 1531.925415,1062.297485 1524.606934,1062.001221 
	C1520.427368,1061.831909 1519.315308,1063.698120 1519.643188,1069.269043 
M1226.096802,593.096680 
	C1250.273438,568.919617 1274.450073,544.742493 1297.589233,521.602844 
	C1263.354858,487.373749 1229.975342,453.999298 1196.519531,420.548676 
	C1184.356445,430.291534 1101.562744,514.121033 1099.178589,518.381348 
	C1132.962402,552.176636 1166.290161,585.515808 1200.463013,619.700317 
	C1208.031738,611.833496 1216.564209,602.965027 1226.096802,593.096680 
M856.819641,772.024536 
	C888.327698,803.518127 919.835693,835.011658 950.707336,865.869141 
	C984.703796,831.862183 1018.027100,798.528564 1051.475464,765.069885 
	C1045.808960,756.793457 957.503418,669.139709 952.223450,666.336731 
	C918.829773,699.725464 885.674500,732.875854 852.057495,766.487854 
	C852.940369,767.543457 854.381409,769.266296 856.819641,772.024536 
M1067.832397,737.006226 
	C1070.187744,739.164734 1072.543091,741.323242 1073.889771,742.557495 
	C1107.851440,708.573669 1141.174072,675.229126 1173.928467,642.453247 
	C1141.247681,609.777893 1107.875488,576.411133 1075.559082,544.100098 
	C1042.694214,576.953979 1009.162048,610.474976 975.157288,644.468384 
	C1005.156128,674.431213 1035.997437,705.235535 1067.832397,737.006226 
M1807.239258,1123.623779 
	C1796.638916,1123.104980 1785.947021,1121.445679 1775.455933,1122.287842 
	C1747.493652,1124.532349 1724.227051,1138.949951 1717.557861,1170.637085 
	C1716.068970,1177.711182 1714.880615,1184.935059 1714.516113,1192.138672 
	C1714.002441,1202.287842 1714.386108,1212.482422 1714.386108,1222.669189 
	C1722.828125,1222.669189 1729.967529,1222.669189 1737.714844,1222.669189 
	C1737.714844,1210.025391 1737.152100,1198.040405 1737.829956,1186.125977 
	C1739.324219,1159.859741 1752.833862,1144.288452 1779.592773,1141.702515 
	C1785.490967,1141.132324 1791.631714,1141.370117 1797.480469,1142.332153 
	C1811.277832,1144.601196 1821.688110,1151.860840 1825.850708,1165.683105 
	C1828.117432,1173.209961 1829.490723,1181.144775 1830.123169,1188.987915 
	C1830.843750,1197.923462 1829.663452,1207.016602 1830.445190,1215.941772 
	C1831.474854,1227.697510 1826.519531,1236.034790 1817.158691,1241.899048 
	C1807.334351,1248.053833 1797.222534,1253.816772 1786.900146,1259.093506 
	C1771.531494,1266.950073 1755.528320,1273.611328 1740.414185,1281.908569 
	C1720.825684,1292.662231 1709.649048,1309.465088 1707.516357,1332.136597 
	C1705.549194,1353.048218 1705.285156,1373.923950 1708.174438,1394.715576 
	C1712.010010,1422.317749 1726.849121,1439.125244 1752.047485,1445.125366 
	C1755.900146,1446.042725 1759.858887,1446.723145 1763.804932,1447.006348 
	C1788.892090,1448.807495 1810.549561,1442.332642 1825.827148,1420.825195 
	C1826.831299,1419.411499 1827.842163,1418.002563 1828.849976,1416.591431 
	C1829.412476,1416.775635 1829.975098,1416.959839 1830.537598,1417.143921 
	C1830.537598,1425.942627 1830.537598,1434.741211 1830.537598,1443.593506 
	C1838.618286,1443.593506 1845.782349,1443.593506 1853.709961,1443.593506 
	C1853.709961,1439.489258 1853.709961,1435.888184 1853.709961,1432.287231 
	C1853.709961,1354.342651 1853.773560,1276.397949 1853.622559,1198.453613 
	C1853.605347,1189.543457 1852.889160,1180.563843 1851.630981,1171.739990 
	C1847.904175,1145.602783 1833.614136,1129.894165 1807.239258,1123.623779 
M1992.294678,1175.320923 
	C1991.040894,1191.066162 1988.955444,1206.800049 1990.974609,1222.683594 
	C1998.793335,1222.683594 2005.932617,1222.683594 2013.711670,1222.683594 
	C2013.711670,1210.392090 2013.409912,1198.768066 2013.775757,1187.165039 
	C2014.487427,1164.596802 2025.504150,1147.553223 2047.708252,1142.916992 
	C2058.667969,1140.628540 2069.479492,1140.684326 2080.173828,1143.997803 
	C2090.719727,1147.265259 2098.276367,1154.271851 2101.608398,1164.613403 
	C2104.115479,1172.394409 2105.451904,1180.710693 2106.115967,1188.885742 
	C2106.868652,1198.151367 2105.716553,1207.569824 2106.438721,1216.840332 
	C2107.293457,1227.810181 2102.662598,1235.802246 2094.072754,1241.284790 
	C2083.471436,1248.050903 2072.404785,1254.156738 2061.212646,1259.912231 
	C2046.454956,1267.500977 2031.029785,1273.839722 2016.526611,1281.863892 
	C1997.031616,1292.650269 1985.657349,1309.311035 1983.519897,1332.001587 
	C1981.550171,1352.912842 1981.199219,1373.803589 1984.180664,1394.579102 
	C1986.936523,1413.782349 1994.552490,1430.840210 2013.001709,1439.657959 
	C2033.993896,1449.690918 2055.848145,1450.478027 2077.603271,1441.153687 
	C2089.424072,1436.087402 2098.140381,1427.392822 2106.430664,1417.097900 
	C2106.430664,1425.880249 2106.430664,1434.662720 2106.430664,1443.643921 
	C2114.528809,1443.643921 2121.691406,1443.643921 2129.709961,1443.643921 
	C2129.709961,1439.603638 2129.709961,1436.011230 2129.709961,1432.418945 
	C2129.709961,1354.806763 2129.772461,1277.194580 2129.624512,1199.582642 
	C2129.607422,1190.661743 2128.998779,1181.654297 2127.656982,1172.840332 
	C2123.905029,1148.195923 2111.726318,1127.922119 2081.055664,1123.378540 
	C2071.266846,1121.928589 2061.101074,1121.448975 2051.255859,1122.279419 
	C2030.917969,1123.994995 2012.925903,1131.384155 2001.980835,1149.802734 
	C1997.660156,1157.073730 1995.533325,1165.648315 1992.294678,1175.320923 
M2270.312744,1357.000000 
	C2270.312744,1385.868042 2270.312744,1414.735962 2270.312744,1443.463745 
	C2279.059326,1443.463745 2286.541504,1443.463745 2294.352783,1443.463745 
	C2294.352783,1439.171509 2294.352783,1435.527832 2294.352783,1431.884155 
	C2294.352783,1353.230347 2294.295166,1274.576538 2294.378662,1195.922852 
	C2294.416992,1159.915283 2322.072021,1136.474121 2357.579102,1142.119385 
	C2375.480225,1144.965454 2387.448242,1155.053711 2391.833984,1172.586182 
	C2394.220459,1182.126465 2395.450928,1192.203491 2395.487793,1202.044800 
	C2395.775635,1279.031128 2395.647217,1356.018921 2395.647217,1433.006348 
	C2395.647217,1436.545166 2395.647217,1440.083984 2395.647217,1443.392090 
	C2403.957520,1443.392090 2411.065186,1443.392090 2418.140137,1443.392090 
	C2418.233887,1441.670776 2418.335693,1440.673218 2418.335693,1439.675659 
	C2418.346191,1355.689453 2418.415771,1271.703125 2418.234375,1187.717285 
	C2418.218750,1180.478394 2417.273193,1173.056763 2415.493408,1166.041382 
	C2410.347656,1145.760620 2399.193848,1130.228638 2377.897217,1124.870850 
	C2369.640381,1122.793701 2360.833252,1122.357178 2352.257812,1122.196777 
	C2329.753174,1121.775757 2311.481689,1130.172241 2298.851318,1149.427002 
	C2297.937744,1150.819580 2296.522217,1151.882812 2294.040771,1154.436279 
	C2294.040771,1122.593750 2294.040771,1092.745239 2294.040771,1062.667480 
	C2285.946045,1062.667480 2278.494873,1062.667480 2270.312744,1062.667480 
	C2270.312744,1160.500366 2270.312744,1257.750122 2270.312744,1357.000000 
M2758.283447,1241.000000 
	C2758.283447,1308.515869 2758.283447,1376.031616 2758.283447,1443.582153 
	C2766.645264,1443.582153 2773.813477,1443.582153 2781.716553,1443.582153 
	C2781.716553,1439.455200 2781.716553,1435.850830 2781.716553,1432.246582 
	C2781.716553,1352.945923 2781.768311,1273.645142 2781.633301,1194.344727 
	C2781.620361,1186.756958 2781.018311,1179.069702 2779.697754,1171.603882 
	C2775.797607,1149.559204 2765.218750,1132.530151 2742.772705,1125.046143 
	C2733.122070,1121.828613 2723.153809,1121.857422 2713.167480,1122.062988 
	C2691.824219,1122.502075 2674.579102,1130.774902 2662.380615,1148.682251 
	C2661.255127,1150.334473 2660.018799,1151.911011 2658.834229,1153.522705 
	C2658.289551,1153.329712 2657.745117,1153.136841 2657.200684,1152.943848 
	C2657.200684,1143.448120 2657.200684,1133.952393 2657.200684,1124.744873 
	C2649.135986,1124.744873 2641.972900,1124.744873 2634.955566,1124.744873 
	C2634.955566,1231.532593 2634.955566,1337.632568 2634.955566,1443.487793 
	C2642.809570,1443.487793 2649.984375,1443.487793 2657.716553,1443.487793 
	C2657.716553,1439.227051 2657.716553,1435.613892 2657.716553,1432.000732 
	C2657.716553,1353.699707 2657.765625,1275.398438 2657.650391,1197.097656 
	C2657.636963,1187.959839 2659.043701,1179.204590 2662.672607,1170.907959 
	C2672.559814,1148.301880 2698.754150,1136.780029 2724.551514,1142.991577 
	C2739.868652,1146.679688 2750.134277,1155.570801 2754.150635,1170.707886 
	C2756.332275,1178.931152 2757.732666,1187.533203 2758.109619,1196.025391 
	C2758.744385,1210.324585 2758.283447,1224.672607 2758.283447,1241.000000 
M2574.020996,1433.137573 
	C2577.182129,1430.214111 2580.664795,1427.566528 2583.449951,1424.320557 
	C2597.332764,1408.141724 2602.243652,1388.781250 2602.299561,1368.017700 
	C2602.447021,1313.375000 2602.465088,1258.731201 2602.233154,1204.089111 
	C2602.195312,1195.191528 2601.533203,1186.094604 2599.582520,1177.445435 
	C2593.846191,1152.011719 2579.428223,1133.928589 2553.799805,1125.673462 
	C2542.768799,1122.120239 2531.593506,1122.029053 2520.274170,1122.063232 
	C2485.899170,1122.167114 2459.599365,1142.933350 2452.243408,1176.415894 
	C2450.620605,1183.802979 2449.786133,1191.512573 2449.760254,1199.077637 
	C2449.560547,1257.051880 2449.322266,1315.029785 2449.771484,1373.001221 
	C2450.049561,1408.850708 2469.548340,1437.895142 2504.860596,1445.155884 
	C2528.748535,1450.067627 2551.814941,1447.648926 2574.020996,1433.137573 
M1018.924377,496.075562 
	C997.369690,474.522919 975.815063,452.970306 954.791565,431.948792 
	C924.128479,462.614685 894.503113,492.242737 865.627258,521.121216 
	C895.018921,550.534729 924.807373,580.345337 953.887085,609.446655 
	C982.990784,580.308716 1012.753174,550.511353 1043.722534,519.505554 
	C1036.335815,512.543518 1028.130127,504.809509 1018.924377,496.075562 
M747.276733,651.553101 
	C775.005554,679.274048 802.734375,706.994995 830.356445,734.609253 
	C842.950256,724.755005 916.421387,650.347839 919.322266,645.220825 
	C889.468262,615.365295 859.869568,585.765076 831.494568,557.388611 
	C802.384338,586.506165 772.611023,616.287048 742.529297,646.376404 
	C743.186279,647.106873 744.724731,648.817261 747.276733,651.553101 
M649.903625,543.095154 
	C669.809937,563.001160 689.716187,582.907227 708.681580,601.872314 
	C735.554321,574.999634 761.581116,548.972839 786.102356,524.451660 
	C760.575012,498.927216 734.398010,472.753143 709.605530,447.963531 
	C684.624878,472.922760 658.618958,498.906250 631.929443,525.572876 
	C637.043030,530.550354 642.972961,536.322449 649.903625,543.095154 
M2243.493652,1442.508301 
	C2243.493652,1436.988159 2243.493652,1431.468140 2243.493652,1425.269897 
	C2236.854736,1425.269897 2231.221191,1425.429932 2225.601562,1425.215576 
	C2221.641357,1425.064453 2217.620605,1424.761841 2213.766846,1423.900391 
	C2204.789062,1421.893433 2199.136719,1416.411499 2197.729248,1407.074585 
	C2197.190674,1403.499878 2196.409180,1399.902710 2196.406006,1396.315186 
	C2196.330811,1314.662354 2196.342285,1233.009399 2196.377441,1151.356567 
	C2196.378418,1148.843628 2196.809082,1146.331055 2197.073730,1143.447021 
	C2212.959473,1143.086426 2228.150879,1143.652954 2243.237793,1143.119507 
	C2243.237793,1136.173218 2243.237793,1130.614746 2243.237793,1124.333008 
	C2227.457275,1123.606445 2211.981689,1124.639038 2196.032227,1123.687866 
	C2196.032227,1102.623657 2196.032227,1082.751831 2196.032227,1062.730469 
	C2188.258789,1062.730469 2181.154541,1062.730469 2173.450439,1062.730469 
	C2173.450439,1083.267456 2173.450439,1103.167603 2173.450439,1124.320679 
	C2164.801025,1124.320679 2156.718018,1124.320679 2148.786621,1124.320679 
	C2148.786621,1131.153931 2148.786621,1136.712891 2148.786621,1143.297852 
	C2157.046387,1143.297852 2164.891113,1143.297852 2173.652100,1143.297852 
	C2173.652100,1147.915771 2173.652344,1151.501343 2173.652344,1155.086914 
	C2173.652344,1234.740112 2173.640137,1314.393433 2173.680908,1394.046631 
	C2173.683350,1399.032837 2173.816895,1404.049561 2174.366211,1408.999268 
	C2176.478760,1428.046143 2185.547852,1439.137939 2204.382080,1442.267700 
	C2216.714355,1444.317017 2229.541504,1443.388184 2243.493652,1442.508301 
M1897.862061,1404.433472 
	C1898.035034,1406.422485 1898.076538,1408.433350 1898.401855,1410.397095 
	C1900.927490,1425.641479 1908.134033,1437.127930 1923.853027,1441.592529 
	C1938.170654,1445.659180 1952.676270,1443.864746 1967.280029,1443.907593 
	C1967.280029,1437.278564 1967.280029,1431.738281 1967.280029,1425.269165 
	C1960.297119,1425.269165 1953.677368,1425.393311 1947.063843,1425.244995 
	C1929.720581,1424.855957 1921.443848,1416.915039 1920.361694,1399.778198 
	C1920.277832,1398.450439 1920.348267,1397.112793 1920.348267,1395.779785 
	C1920.348267,1314.462036 1920.343628,1233.144287 1920.370728,1151.826538 
	C1920.371582,1149.248413 1920.701538,1146.670288 1920.945190,1143.115723 
	C1936.621094,1143.115723 1951.809448,1143.115723 1967.048584,1143.115723 
	C1967.048584,1136.285156 1967.048584,1130.483521 1967.048584,1123.776367 
	C1951.273438,1123.776367 1936.118408,1123.776367 1919.986572,1123.776367 
	C1919.986572,1102.749634 1919.986572,1082.629272 1919.986572,1062.576172 
	C1912.114380,1062.576172 1905.257568,1062.576172 1897.462402,1062.576172 
	C1897.462402,1083.191406 1897.462402,1103.339600 1897.462402,1124.353516 
	C1888.675171,1124.353516 1880.827637,1124.353516 1872.993652,1124.353516 
	C1872.993652,1131.048584 1872.993652,1136.826416 1872.993652,1143.675293 
	C1881.444214,1143.675293 1889.251709,1143.675293 1897.672119,1143.675293 
	C1897.672119,1230.702515 1897.672119,1316.632324 1897.862061,1404.433472 
M556.577515,365.576843 
	C544.441345,377.713684 532.305176,389.850555 520.894165,401.262238 
	C544.411133,424.785248 566.959473,447.339355 588.365173,468.750458 
	C610.624390,446.495575 633.335632,423.788757 655.461914,401.666840 
	C633.700073,379.901276 611.169495,357.366852 587.986572,334.179901 
	C578.193909,343.968750 567.885803,354.272888 556.577515,365.576843 
M414.128204,276.998932 
	C412.869476,278.465485 411.610748,279.932037 411.535980,280.019135 
	C431.120605,299.593323 450.271393,318.733948 468.709167,337.161896 
	C486.726135,319.137238 505.699219,300.156097 523.971802,281.875702 
	C505.369598,263.391724 486.160004,244.304230 466.445801,224.715347 
	C449.861969,241.294312 432.489471,258.661713 414.128204,276.998932 
z"/>
<path fill="#019EDB" opacity="1.000000" stroke="none" 
	d="
M1001.693604,1341.693848 
	C966.113831,1377.272583 931.034058,1412.351196 896.727905,1446.656372 
	C847.708374,1397.637817 799.261902,1349.192139 750.273804,1300.205078 
	C787.953369,1262.523560 826.268982,1224.205933 864.635193,1185.837646 
	C738.803955,1060.007324 613.696655,934.900818 489.538116,810.743164 
	C538.759521,761.520386 587.393005,712.885620 635.621704,664.655579 
	C808.401550,837.435364 982.493713,1011.527466 1157.176880,1186.210571 
	C1105.825439,1237.562012 1054.009521,1289.377930 1001.693604,1341.693848 
z"/>
<path fill="#029FDB" opacity="1.000000" stroke="none" 
	d="
M1925.675781,950.000000 
	C1925.675781,819.055298 1925.675781,689.110596 1925.675781,558.587769 
	C1928.291870,558.224976 1930.478760,557.663025 1932.666870,557.657715 
	C1958.328613,557.595032 1983.992798,557.800537 2009.650513,557.474731 
	C2015.496948,557.400513 2018.455444,559.626648 2021.360474,564.428284 
	C2051.158447,613.683594 2081.216797,662.781555 2111.179688,711.937378 
	C2136.983887,754.270874 2162.758057,796.622864 2188.551025,838.963196 
	C2189.205078,840.037048 2189.926270,841.070068 2191.989746,844.216431 
	C2191.989746,747.649414 2191.989746,653.354553 2191.989746,558.340027 
	C2222.848877,558.340027 2252.630127,558.340027 2283.052979,558.340027 
	C2283.052979,703.883179 2283.052979,849.345947 2283.052979,995.522034 
	C2280.520996,995.770996 2277.991943,996.230286 2275.461914,996.235657 
	C2250.133301,996.289490 2224.803467,996.132080 2199.477051,996.375854 
	C2193.924805,996.429321 2190.634766,994.946838 2187.566162,989.872375 
	C2154.678955,935.486755 2121.434082,881.317383 2088.334717,827.059692 
	C2065.981201,790.416931 2043.705566,753.726746 2021.378052,717.068176 
	C2020.871826,716.236938 2020.160278,715.530823 2019.561890,714.787903 
	C2019.172607,714.899719 2018.823608,714.940735 2018.540894,715.099548 
	C2018.305298,715.231873 2017.978638,715.502258 2017.978516,715.711670 
	C2017.954468,808.656250 2017.954834,901.600769 2017.954834,994.304199 
	C2010.326782,996.696350 1944.445801,997.438110 1925.675781,995.417725 
	C1925.675781,980.729736 1925.675781,965.864868 1925.675781,950.000000 
z"/>
<path fill="#019EDB" opacity="1.000000" stroke="none" 
	d="
M1519.678955,648.000000 
	C1519.678833,617.706177 1519.678833,588.412354 1519.678833,557.642761 
	C1549.708496,557.593262 1579.194458,557.622681 1610.028442,557.627441 
	C1610.131470,561.795593 1610.308228,565.632263 1610.308960,569.468994 
	C1610.324341,661.791626 1610.218384,754.114563 1610.470703,846.436462 
	C1610.497681,856.308899 1611.946289,866.302917 1613.853149,876.021240 
	C1619.591431,905.264526 1638.674927,921.414612 1666.898071,927.436890 
	C1682.309326,930.725342 1697.797607,930.172119 1713.284668,926.430725 
	C1740.612305,919.828735 1756.021240,902.070435 1761.836304,875.421509 
	C1763.591309,867.378662 1764.199341,858.942627 1764.213379,850.684814 
	C1764.372925,757.362610 1764.314453,664.039978 1764.314453,570.717468 
	C1764.314453,566.779053 1764.314453,562.840576 1764.314453,558.278076 
	C1795.012817,558.278076 1824.857544,558.278076 1855.726318,558.278076 
	C1855.909180,560.807983 1856.293701,563.653931 1856.294556,566.500061 
	C1856.325928,662.155640 1856.647583,757.812927 1856.150513,853.465942 
	C1855.966064,888.957275 1846.078979,921.642334 1822.526489,949.320435 
	C1802.415405,972.954163 1777.050659,988.279663 1747.256226,995.626953 
	C1705.858521,1005.835632 1664.016968,1006.546814 1623.098511,993.901245 
	C1565.845581,976.207520 1530.795532,937.971069 1521.747437,877.755859 
	C1520.420532,868.925232 1519.787842,859.908875 1519.766602,850.976318 
	C1519.606079,783.651184 1519.678955,716.325500 1519.678955,648.000000 
z"/>
<path fill="#019EDB" opacity="1.000000" stroke="none" 
	d="
M417.239014,1109.239014 
	C440.584045,1085.887939 463.429077,1063.036743 485.557434,1040.902588 
	C534.298279,1089.639038 582.713440,1138.049927 630.241272,1185.573486 
	C544.225464,1271.587769 457.370514,1358.441284 371.350769,1444.459473 
	C324.340729,1397.450684 275.942657,1349.053955 226.683014,1299.795532 
	C289.206696,1237.271729 352.972900,1173.505371 417.239014,1109.239014 
z"/>
<path fill="#130542" opacity="1.000000" stroke="none" 
	d="
M1519.644653,1068.295166 
	C1519.315308,1063.698120 1520.427368,1061.831909 1524.606934,1062.001221 
	C1531.925415,1062.297485 1539.264648,1062.079346 1546.595215,1062.078979 
	C1564.255249,1062.078247 1581.917725,1061.897949 1599.574463,1062.141602 
	C1611.599243,1062.307373 1623.373047,1064.416260 1634.496704,1069.167603 
	C1661.512573,1080.706909 1674.996582,1102.462524 1679.633545,1130.398438 
	C1681.090820,1139.177979 1681.584595,1148.205200 1681.605835,1157.121216 
	C1681.763672,1223.429321 1681.903687,1289.739136 1681.477783,1356.044922 
	C1681.408569,1366.827881 1679.709351,1377.939087 1676.706665,1388.302612 
	C1666.703003,1422.832397 1641.746216,1441.632324 1605.735107,1443.768799 
	C1577.554077,1445.440796 1549.194580,1444.103882 1519.643188,1444.103882 
	C1519.643188,1318.849731 1519.643188,1194.059448 1519.644653,1068.295166 
M1545.339600,1423.938843 
	C1562.327271,1423.986572 1579.330933,1424.520874 1596.298706,1423.963257 
	C1619.363159,1423.205200 1638.341064,1414.391235 1649.430420,1393.008911 
	C1655.303711,1381.684082 1657.620972,1369.274658 1657.628662,1356.526855 
	C1657.669189,1289.236694 1657.706543,1221.946411 1657.565552,1154.656494 
	C1657.549683,1147.072510 1656.911621,1139.407837 1655.689087,1131.923096 
	C1651.644531,1107.161987 1634.450562,1088.856934 1610.872925,1084.301392 
	C1588.842651,1080.044678 1566.605835,1082.825073 1543.686646,1082.128296 
	C1543.686646,1086.679321 1543.686646,1090.269165 1543.686646,1093.859009 
	C1543.686646,1183.801270 1543.675171,1273.743652 1543.695557,1363.685913 
	C1543.700073,1383.337280 1543.817871,1402.988770 1545.339600,1423.938843 
z"/>
<path fill="#37E813" opacity="1.000000" stroke="none" 
	d="
M1225.596680,593.596680 
	C1216.564209,602.965027 1208.031738,611.833496 1200.463013,619.700317 
	C1166.290161,585.515808 1132.962402,552.176636 1099.178589,518.381348 
	C1101.562744,514.121033 1184.356445,430.291534 1196.519531,420.548676 
	C1229.975342,453.999298 1263.354858,487.373749 1297.589233,521.602844 
	C1274.450073,544.742493 1250.273438,568.919617 1225.596680,593.596680 
z"/>
<path fill="#36E813" opacity="1.000000" stroke="none" 
	d="
M856.321045,771.506836 
	C854.381409,769.266296 852.940369,767.543457 852.057495,766.487854 
	C885.674500,732.875854 918.829773,699.725464 952.223450,666.336731 
	C957.503418,669.139709 1045.808960,756.793457 1051.475464,765.069885 
	C1018.027100,798.528564 984.703796,831.862183 950.707336,865.869141 
	C919.835693,835.011658 888.327698,803.518127 856.321045,771.506836 
z"/>
<path fill="#36E813" opacity="1.000000" stroke="none" 
	d="
M1067.335571,736.523071 
	C1035.997437,705.235535 1005.156128,674.431213 975.157288,644.468384 
	C1009.162048,610.474976 1042.694214,576.953979 1075.559082,544.100098 
	C1107.875488,576.411133 1141.247681,609.777893 1173.928467,642.453247 
	C1141.174072,675.229126 1107.851440,708.573669 1073.889771,742.557495 
	C1072.543091,741.323242 1070.187744,739.164734 1067.335571,736.523071 
z"/>
<path fill="#160845" opacity="1.000000" stroke="none" 
	d="
M1808.068848,1123.816650 
	C1833.614136,1129.894165 1847.904175,1145.602783 1851.630981,1171.739990 
	C1852.889160,1180.563843 1853.605347,1189.543457 1853.622559,1198.453613 
	C1853.773560,1276.397949 1853.709961,1354.342651 1853.709961,1432.287231 
	C1853.709961,1435.888184 1853.709961,1439.489258 1853.709961,1443.593506 
	C1845.782349,1443.593506 1838.618286,1443.593506 1830.537598,1443.593506 
	C1830.537598,1434.741211 1830.537598,1425.942627 1830.537598,1417.143921 
	C1829.975098,1416.959839 1829.412476,1416.775635 1828.849976,1416.591431 
	C1827.842163,1418.002563 1826.831299,1419.411499 1825.827148,1420.825195 
	C1810.549561,1442.332642 1788.892090,1448.807495 1763.804932,1447.006348 
	C1759.858887,1446.723145 1755.900146,1446.042725 1752.047485,1445.125366 
	C1726.849121,1439.125244 1712.010010,1422.317749 1708.174438,1394.715576 
	C1705.285156,1373.923950 1705.549194,1353.048218 1707.516357,1332.136597 
	C1709.649048,1309.465088 1720.825684,1292.662231 1740.414185,1281.908569 
	C1755.528320,1273.611328 1771.531494,1266.950073 1786.900146,1259.093506 
	C1797.222534,1253.816772 1807.334351,1248.053833 1817.158691,1241.899048 
	C1826.519531,1236.034790 1831.474854,1227.697510 1830.445190,1215.941772 
	C1829.663452,1207.016602 1830.843750,1197.923462 1830.123169,1188.987915 
	C1829.490723,1181.144775 1828.117432,1173.209961 1825.850708,1165.683105 
	C1821.688110,1151.860840 1811.277832,1144.601196 1797.480469,1142.332153 
	C1791.631714,1141.370117 1785.490967,1141.132324 1779.592773,1141.702515 
	C1752.833862,1144.288452 1739.324219,1159.859741 1737.829956,1186.125977 
	C1737.152100,1198.040405 1737.714844,1210.025391 1737.714844,1222.669189 
	C1729.967529,1222.669189 1722.828125,1222.669189 1714.386108,1222.669189 
	C1714.386108,1212.482422 1714.002441,1202.287842 1714.516113,1192.138672 
	C1714.880615,1184.935059 1716.068970,1177.711182 1717.557861,1170.637085 
	C1724.227051,1138.949951 1747.493652,1124.532349 1775.455933,1122.287842 
	C1785.947021,1121.445679 1796.638916,1123.104980 1808.068848,1123.816650 
M1823.007202,1259.954712 
	C1817.703857,1263.352539 1812.613037,1267.155029 1807.056152,1270.069702 
	C1792.368408,1277.773438 1777.380981,1284.906128 1762.695557,1292.614258 
	C1745.825195,1301.469360 1732.077881,1313.599609 1730.628906,1333.853882 
	C1729.375977,1351.367798 1729.123779,1369.152832 1730.673706,1386.618896 
	C1732.767456,1410.213135 1746.236084,1423.718262 1767.805420,1426.859131 
	C1771.721680,1427.429443 1775.764893,1427.266602 1779.747070,1427.221436 
	C1808.497681,1426.895508 1830.111206,1405.434570 1830.250366,1376.640869 
	C1830.438477,1337.723389 1830.308960,1298.804077 1830.255493,1259.885620 
	C1830.253174,1258.180054 1829.651611,1256.475098 1829.217896,1254.181519 
	C1827.022095,1256.277710 1825.579468,1257.654907 1823.007202,1259.954712 
z"/>
<path fill="#160845" opacity="1.000000" stroke="none" 
	d="
M1992.351074,1174.475098 
	C1995.533325,1165.648315 1997.660156,1157.073730 2001.980835,1149.802734 
	C2012.925903,1131.384155 2030.917969,1123.994995 2051.255859,1122.279419 
	C2061.101074,1121.448975 2071.266846,1121.928589 2081.055664,1123.378540 
	C2111.726318,1127.922119 2123.905029,1148.195923 2127.656982,1172.840332 
	C2128.998779,1181.654297 2129.607422,1190.661743 2129.624512,1199.582642 
	C2129.772461,1277.194580 2129.709961,1354.806763 2129.709961,1432.418945 
	C2129.709961,1436.011230 2129.709961,1439.603638 2129.709961,1443.643921 
	C2121.691406,1443.643921 2114.528809,1443.643921 2106.430664,1443.643921 
	C2106.430664,1434.662720 2106.430664,1425.880249 2106.430664,1417.097900 
	C2098.140381,1427.392822 2089.424072,1436.087402 2077.603271,1441.153687 
	C2055.848145,1450.478027 2033.993896,1449.690918 2013.001709,1439.657959 
	C1994.552490,1430.840210 1986.936523,1413.782349 1984.180664,1394.579102 
	C1981.199219,1373.803589 1981.550171,1352.912842 1983.519897,1332.001587 
	C1985.657349,1309.311035 1997.031616,1292.650269 2016.526611,1281.863892 
	C2031.029785,1273.839722 2046.454956,1267.500977 2061.212646,1259.912231 
	C2072.404785,1254.156738 2083.471436,1248.050903 2094.072754,1241.284790 
	C2102.662598,1235.802246 2107.293457,1227.810181 2106.438721,1216.840332 
	C2105.716553,1207.569824 2106.868652,1198.151367 2106.115967,1188.885742 
	C2105.451904,1180.710693 2104.115479,1172.394409 2101.608398,1164.613403 
	C2098.276367,1154.271851 2090.719727,1147.265259 2080.173828,1143.997803 
	C2069.479492,1140.684326 2058.667969,1140.628540 2047.708252,1142.916992 
	C2025.504150,1147.553223 2014.487427,1164.596802 2013.775757,1187.165039 
	C2013.409912,1198.768066 2013.711670,1210.392090 2013.711670,1222.683594 
	C2005.932617,1222.683594 1998.793335,1222.683594 1990.974609,1222.683594 
	C1988.955444,1206.800049 1991.040894,1191.066162 1992.351074,1174.475098 
M2086.168457,1417.426147 
	C2100.487305,1406.073608 2106.511719,1391.139404 2106.378418,1373.020020 
	C2106.107178,1336.100586 2106.307617,1299.177979 2106.273682,1262.256592 
	C2106.271484,1259.816040 2105.932617,1257.375854 2105.816162,1255.816040 
	C2095.291504,1262.161987 2085.357422,1268.635742 2074.974609,1274.284912 
	C2063.031738,1280.782959 2050.591797,1286.360840 2038.549194,1292.683960 
	C2021.994873,1301.375854 2008.351685,1313.320801 2006.714233,1333.023804 
	C2005.234009,1350.836914 2005.184204,1368.971436 2006.710571,1386.775024 
	C2008.236816,1404.577515 2016.489502,1419.406982 2035.276978,1424.788574 
	C2052.590332,1429.747925 2069.435303,1428.453491 2086.168457,1417.426147 
z"/>
<path fill="#120442" opacity="1.000000" stroke="none" 
	d="
M2270.312744,1356.000000 
	C2270.312744,1257.750122 2270.312744,1160.500366 2270.312744,1062.667480 
	C2278.494873,1062.667480 2285.946045,1062.667480 2294.040771,1062.667480 
	C2294.040771,1092.745239 2294.040771,1122.593750 2294.040771,1154.436279 
	C2296.522217,1151.882812 2297.937744,1150.819580 2298.851318,1149.427002 
	C2311.481689,1130.172241 2329.753174,1121.775757 2352.257812,1122.196777 
	C2360.833252,1122.357178 2369.640381,1122.793701 2377.897217,1124.870850 
	C2399.193848,1130.228638 2410.347656,1145.760620 2415.493408,1166.041382 
	C2417.273193,1173.056763 2418.218750,1180.478394 2418.234375,1187.717285 
	C2418.415771,1271.703125 2418.346191,1355.689453 2418.335693,1439.675659 
	C2418.335693,1440.673218 2418.233887,1441.670776 2418.140137,1443.392090 
	C2411.065186,1443.392090 2403.957520,1443.392090 2395.647217,1443.392090 
	C2395.647217,1440.083984 2395.647217,1436.545166 2395.647217,1433.006348 
	C2395.647217,1356.018921 2395.775635,1279.031128 2395.487793,1202.044800 
	C2395.450928,1192.203491 2394.220459,1182.126465 2391.833984,1172.586182 
	C2387.448242,1155.053711 2375.480225,1144.965454 2357.579102,1142.119385 
	C2322.072021,1136.474121 2294.416992,1159.915283 2294.378662,1195.922852 
	C2294.295166,1274.576538 2294.352783,1353.230347 2294.352783,1431.884155 
	C2294.352783,1435.527832 2294.352783,1439.171509 2294.352783,1443.463745 
	C2286.541504,1443.463745 2279.059326,1443.463745 2270.312744,1443.463745 
	C2270.312744,1414.735962 2270.312744,1385.868042 2270.312744,1356.000000 
z"/>
<path fill="#170A46" opacity="1.000000" stroke="none" 
	d="
M2758.283447,1240.000000 
	C2758.283447,1224.672607 2758.744385,1210.324585 2758.109619,1196.025391 
	C2757.732666,1187.533203 2756.332275,1178.931152 2754.150635,1170.707886 
	C2750.134277,1155.570801 2739.868652,1146.679688 2724.551514,1142.991577 
	C2698.754150,1136.780029 2672.559814,1148.301880 2662.672607,1170.907959 
	C2659.043701,1179.204590 2657.636963,1187.959839 2657.650391,1197.097656 
	C2657.765625,1275.398438 2657.716553,1353.699707 2657.716553,1432.000732 
	C2657.716553,1435.613892 2657.716553,1439.227051 2657.716553,1443.487793 
	C2649.984375,1443.487793 2642.809570,1443.487793 2634.955566,1443.487793 
	C2634.955566,1337.632568 2634.955566,1231.532593 2634.955566,1124.744873 
	C2641.972900,1124.744873 2649.135986,1124.744873 2657.200684,1124.744873 
	C2657.200684,1133.952393 2657.200684,1143.448120 2657.200684,1152.943848 
	C2657.745117,1153.136841 2658.289551,1153.329712 2658.834229,1153.522705 
	C2660.018799,1151.911011 2661.255127,1150.334473 2662.380615,1148.682251 
	C2674.579102,1130.774902 2691.824219,1122.502075 2713.167480,1122.062988 
	C2723.153809,1121.857422 2733.122070,1121.828613 2742.772705,1125.046143 
	C2765.218750,1132.530151 2775.797607,1149.559204 2779.697754,1171.603882 
	C2781.018311,1179.069702 2781.620361,1186.756958 2781.633301,1194.344727 
	C2781.768311,1273.645142 2781.716553,1352.945923 2781.716553,1432.246582 
	C2781.716553,1435.850830 2781.716553,1439.455200 2781.716553,1443.582153 
	C2773.813477,1443.582153 2766.645264,1443.582153 2758.283447,1443.582153 
	C2758.283447,1376.031616 2758.283447,1308.515869 2758.283447,1240.000000 
z"/>
<path fill="#110342" opacity="1.000000" stroke="none" 
	d="
M2573.435791,1433.575684 
	C2551.814941,1447.648926 2528.748535,1450.067627 2504.860596,1445.155884 
	C2469.548340,1437.895142 2450.049561,1408.850708 2449.771484,1373.001221 
	C2449.322266,1315.029785 2449.560547,1257.051880 2449.760254,1199.077637 
	C2449.786133,1191.512573 2450.620605,1183.802979 2452.243408,1176.415894 
	C2459.599365,1142.933350 2485.899170,1122.167114 2520.274170,1122.063232 
	C2531.593506,1122.029053 2542.768799,1122.120239 2553.799805,1125.673462 
	C2579.428223,1133.928589 2593.846191,1152.011719 2599.582520,1177.445435 
	C2601.533203,1186.094604 2602.195312,1195.191528 2602.233154,1204.089111 
	C2602.465088,1258.731201 2602.447021,1313.375000 2602.299561,1368.017700 
	C2602.243652,1388.781250 2597.332764,1408.141724 2583.449951,1424.320557 
	C2580.664795,1427.566528 2577.182129,1430.214111 2573.435791,1433.575684 
M2472.337891,1242.999878 
	C2472.337891,1284.976196 2472.268311,1326.952881 2472.417236,1368.928711 
	C2472.438232,1374.842285 2473.054443,1380.845825 2474.204590,1386.647095 
	C2478.490967,1408.262573 2493.124512,1422.722046 2514.772949,1426.567139 
	C2520.277344,1427.544922 2526.095947,1427.715088 2531.667725,1427.184570 
	C2553.689209,1425.087524 2568.323730,1414.845215 2575.295410,1393.676636 
	C2578.046631,1385.323242 2579.414062,1376.149170 2579.476318,1367.334961 
	C2579.850342,1314.367432 2579.725586,1261.395874 2579.590332,1208.425903 
	C2579.571045,1200.834961 2579.035156,1193.184692 2577.984375,1185.667114 
	C2572.499756,1146.437256 2525.486816,1127.004517 2493.679932,1150.918457 
	C2489.036621,1154.409546 2485.090332,1159.180908 2481.778809,1164.015381 
	C2475.241455,1173.560181 2472.595703,1184.569458 2472.400635,1196.026245 
	C2472.145264,1211.013428 2472.338135,1226.008179 2472.337891,1242.999878 
z"/>
<path fill="#39E815" opacity="1.000000" stroke="none" 
	d="
M1019.424377,496.575531 
	C1028.130127,504.809509 1036.335815,512.543518 1043.722534,519.505554 
	C1012.753174,550.511353 982.990784,580.308716 953.887085,609.446655 
	C924.807373,580.345337 895.018921,550.534729 865.627258,521.121216 
	C894.503113,492.242737 924.128479,462.614685 954.791565,431.948792 
	C975.815063,452.970306 997.369690,474.522919 1019.424377,496.575531 
z"/>
<path fill="#39E815" opacity="1.000000" stroke="none" 
	d="
M746.770020,651.040405 
	C744.724731,648.817261 743.186279,647.106873 742.529297,646.376404 
	C772.611023,616.287048 802.384338,586.506165 831.494568,557.388611 
	C859.869568,585.765076 889.468262,615.365295 919.322266,645.220825 
	C916.421387,650.347839 842.950256,724.755005 830.356445,734.609253 
	C802.734375,706.994995 775.005554,679.274048 746.770020,651.040405 
z"/>
<path fill="#37E813" opacity="1.000000" stroke="none" 
	d="
M649.403259,542.594849 
	C642.972961,536.322449 637.043030,530.550354 631.929443,525.572876 
	C658.618958,498.906250 684.624878,472.922760 709.605530,447.963531 
	C734.398010,472.753143 760.575012,498.927216 786.102356,524.451660 
	C761.581116,548.972839 735.554321,574.999634 708.681580,601.872314 
	C689.716187,582.907227 669.809937,563.001160 649.403259,542.594849 
z"/>
<path fill="#110341" opacity="1.000000" stroke="none" 
	d="
M2242.820312,1443.150879 
	C2229.541504,1443.388184 2216.714355,1444.317017 2204.382080,1442.267700 
	C2185.547852,1439.137939 2176.478760,1428.046143 2174.366211,1408.999268 
	C2173.816895,1404.049561 2173.683350,1399.032837 2173.680908,1394.046631 
	C2173.640137,1314.393433 2173.652344,1234.740112 2173.652344,1155.086914 
	C2173.652344,1151.501343 2173.652100,1147.915771 2173.652100,1143.297852 
	C2164.891113,1143.297852 2157.046387,1143.297852 2148.786621,1143.297852 
	C2148.786621,1136.712891 2148.786621,1131.153931 2148.786621,1124.320679 
	C2156.718018,1124.320679 2164.801025,1124.320679 2173.450439,1124.320679 
	C2173.450439,1103.167603 2173.450439,1083.267456 2173.450439,1062.730469 
	C2181.154541,1062.730469 2188.258789,1062.730469 2196.032227,1062.730469 
	C2196.032227,1082.751831 2196.032227,1102.623657 2196.032227,1123.687866 
	C2211.981689,1124.639038 2227.457275,1123.606445 2243.237793,1124.333008 
	C2243.237793,1130.614746 2243.237793,1136.173218 2243.237793,1143.119507 
	C2228.150879,1143.652954 2212.959473,1143.086426 2197.073730,1143.447021 
	C2196.809082,1146.331055 2196.378418,1148.843628 2196.377441,1151.356567 
	C2196.342285,1233.009399 2196.330811,1314.662354 2196.406006,1396.315186 
	C2196.409180,1399.902710 2197.190674,1403.499878 2197.729248,1407.074585 
	C2199.136719,1416.411499 2204.789062,1421.893433 2213.766846,1423.900391 
	C2217.620605,1424.761841 2221.641357,1425.064453 2225.601562,1425.215576 
	C2231.221191,1425.429932 2236.854736,1425.269897 2243.493652,1425.269897 
	C2243.493652,1431.468140 2243.493652,1436.988159 2242.820312,1443.150879 
z"/>
<path fill="#110341" opacity="1.000000" stroke="none" 
	d="
M1897.767090,1403.497803 
	C1897.672119,1316.632324 1897.672119,1230.702515 1897.672119,1143.675293 
	C1889.251709,1143.675293 1881.444214,1143.675293 1872.993652,1143.675293 
	C1872.993652,1136.826416 1872.993652,1131.048584 1872.993652,1124.353516 
	C1880.827637,1124.353516 1888.675171,1124.353516 1897.462402,1124.353516 
	C1897.462402,1103.339600 1897.462402,1083.191406 1897.462402,1062.576172 
	C1905.257568,1062.576172 1912.114380,1062.576172 1919.986572,1062.576172 
	C1919.986572,1082.629272 1919.986572,1102.749634 1919.986572,1123.776367 
	C1936.118408,1123.776367 1951.273438,1123.776367 1967.048584,1123.776367 
	C1967.048584,1130.483521 1967.048584,1136.285156 1967.048584,1143.115723 
	C1951.809448,1143.115723 1936.621094,1143.115723 1920.945190,1143.115723 
	C1920.701538,1146.670288 1920.371582,1149.248413 1920.370728,1151.826538 
	C1920.343628,1233.144287 1920.348267,1314.462036 1920.348267,1395.779785 
	C1920.348267,1397.112793 1920.277832,1398.450439 1920.361694,1399.778198 
	C1921.443848,1416.915039 1929.720581,1424.855957 1947.063843,1425.244995 
	C1953.677368,1425.393311 1960.297119,1425.269165 1967.280029,1425.269165 
	C1967.280029,1431.738281 1967.280029,1437.278564 1967.280029,1443.907593 
	C1952.676270,1443.864746 1938.170654,1445.659180 1923.853027,1441.592529 
	C1908.134033,1437.127930 1900.927490,1425.641479 1898.401855,1410.397095 
	C1898.076538,1408.433350 1898.035034,1406.422485 1897.767090,1403.497803 
z"/>
<path fill="#38E815" opacity="1.000000" stroke="none" 
	d="
M557.077637,365.076904 
	C567.885803,354.272888 578.193909,343.968750 587.986572,334.179901 
	C611.169495,357.366852 633.700073,379.901276 655.461914,401.666840 
	C633.335632,423.788757 610.624390,446.495575 588.365173,468.750458 
	C566.959473,447.339355 544.411133,424.785248 520.894165,401.262238 
	C532.305176,389.850555 544.441345,377.713684 557.077637,365.076904 
z"/>
<path fill="#3AE817" opacity="1.000000" stroke="none" 
	d="
M414.622589,276.514038 
	C432.489471,258.661713 449.861969,241.294312 466.445801,224.715347 
	C486.160004,244.304230 505.369598,263.391724 523.971802,281.875702 
	C505.699219,300.156097 486.726135,319.137238 468.709167,337.161896 
	C450.271393,318.733948 431.120605,299.593323 411.535980,280.019135 
	C411.610748,279.932037 412.869476,278.465485 414.622589,276.514038 
z"/>
<path fill="#FEFEFE" opacity="1.000000" stroke="none" 
	d="
M1544.611572,1423.289551 
	C1543.817871,1402.988770 1543.700073,1383.337280 1543.695557,1363.685913 
	C1543.675171,1273.743652 1543.686646,1183.801270 1543.686646,1093.859009 
	C1543.686646,1090.269165 1543.686646,1086.679321 1543.686646,1082.128296 
	C1566.605835,1082.825073 1588.842651,1080.044678 1610.872925,1084.301392 
	C1634.450562,1088.856934 1651.644531,1107.161987 1655.689087,1131.923096 
	C1656.911621,1139.407837 1657.549683,1147.072510 1657.565552,1154.656494 
	C1657.706543,1221.946411 1657.669189,1289.236694 1657.628662,1356.526855 
	C1657.620972,1369.274658 1655.303711,1381.684082 1649.430420,1393.008911 
	C1638.341064,1414.391235 1619.363159,1423.205200 1596.298706,1423.963257 
	C1579.330933,1424.520874 1562.327271,1423.986572 1544.611572,1423.289551 
z"/>
<path fill="#FDFDFE" opacity="1.000000" stroke="none" 
	d="
M1823.572021,1259.493408 
	C1825.579468,1257.654907 1827.022095,1256.277710 1829.217896,1254.181519 
	C1829.651611,1256.475098 1830.253174,1258.180054 1830.255493,1259.885620 
	C1830.308960,1298.804077 1830.438477,1337.723389 1830.250366,1376.640869 
	C1830.111206,1405.434570 1808.497681,1426.895508 1779.747070,1427.221436 
	C1775.764893,1427.266602 1771.721680,1427.429443 1767.805420,1426.859131 
	C1746.236084,1423.718262 1732.767456,1410.213135 1730.673706,1386.618896 
	C1729.123779,1369.152832 1729.375977,1351.367798 1730.628906,1333.853882 
	C1732.077881,1313.599609 1745.825195,1301.469360 1762.695557,1292.614258 
	C1777.380981,1284.906128 1792.368408,1277.773438 1807.056152,1270.069702 
	C1812.613037,1267.155029 1817.703857,1263.352539 1823.572021,1259.493408 
z"/>
<path fill="#FDFDFE" opacity="1.000000" stroke="none" 
	d="
M2085.530762,1417.794434 
	C2069.435303,1428.453491 2052.590332,1429.747925 2035.276978,1424.788574 
	C2016.489502,1419.406982 2008.236816,1404.577515 2006.710571,1386.775024 
	C2005.184204,1368.971436 2005.234009,1350.836914 2006.714233,1333.023804 
	C2008.351685,1313.320801 2021.994873,1301.375854 2038.549194,1292.683960 
	C2050.591797,1286.360840 2063.031738,1280.782959 2074.974609,1274.284912 
	C2085.357422,1268.635742 2095.291504,1262.161987 2105.816162,1255.816040 
	C2105.932617,1257.375854 2106.271484,1259.816040 2106.273682,1262.256592 
	C2106.307617,1299.177979 2106.107178,1336.100586 2106.378418,1373.020020 
	C2106.511719,1391.139404 2100.487305,1406.073608 2085.530762,1417.794434 
z"/>
<path fill="#FDFDFD" opacity="1.000000" stroke="none" 
	d="
M2472.337891,1241.999756 
	C2472.338135,1226.008179 2472.145264,1211.013428 2472.400635,1196.026245 
	C2472.595703,1184.569458 2475.241455,1173.560181 2481.778809,1164.015381 
	C2485.090332,1159.180908 2489.036621,1154.409546 2493.679932,1150.918457 
	C2525.486816,1127.004517 2572.499756,1146.437256 2577.984375,1185.667114 
	C2579.035156,1193.184692 2579.571045,1200.834961 2579.590332,1208.425903 
	C2579.725586,1261.395874 2579.850342,1314.367432 2579.476318,1367.334961 
	C2579.414062,1376.149170 2578.046631,1385.323242 2575.295410,1393.676636 
	C2568.323730,1414.845215 2553.689209,1425.087524 2531.667725,1427.184570 
	C2526.095947,1427.715088 2520.277344,1427.544922 2514.772949,1426.567139 
	C2493.124512,1422.722046 2478.490967,1408.262573 2474.204590,1386.647095 
	C2473.054443,1380.845825 2472.438232,1374.842285 2472.417236,1368.928711 
	C2472.268311,1326.952881 2472.337891,1284.976196 2472.337891,1241.999756 
z"/>
</svg>