<svg version="1.1" id="Layer_1" xmlns="http://www.w3.org/2000/svg" xmlns:xlink="http://www.w3.org/1999/xlink" x="0px" y="0px"
	 viewBox="0 0 512 512" enable-background="new 0 0 512 512" xml:space="preserve">
<path fill="custom/undatathon" opacity="1.000000" stroke="none" 
	d="
M266.000000,0.999998 
	C348.315887,1.000000 430.631744,1.000000 512.973816,1.000000 
	C512.973816,171.613007 512.973816,342.226044 512.973816,512.919556 
	C342.423218,512.919556 171.846375,512.919556 1.134773,512.919556 
	C1.134773,342.333405 1.134773,171.666718 1.128270,1.000018 
	C82.771172,1.000000 164.420578,1.000000 246.528992,1.351123 
	C245.672577,4.138566 244.357147,6.574885 242.972504,9.361044 
	C241.747314,11.472741 240.552719,13.210630 239.441422,15.000240 
	C230.156891,29.951864 220.786743,44.851727 211.654984,59.896225 
	C206.850494,67.811615 202.470764,75.984833 197.590988,84.178818 
	C196.433151,85.734863 195.447174,87.090477 194.755356,88.582481 
	C188.747238,101.539970 182.174850,114.280556 176.980728,127.559143 
	C170.816330,143.318207 165.179810,159.355957 160.563660,175.627304 
	C156.292511,190.682541 159.019897,205.195862 167.627045,218.604568 
	C175.644424,231.094498 186.080460,241.235870 197.036285,251.249908 
	C196.898514,260.018860 196.898514,268.375427 196.898514,277.799377 
	C194.221664,275.469269 192.277878,273.773407 190.330017,272.082275 
	C162.992203,248.347290 134.757172,225.624405 109.526871,199.525909 
	C92.372017,181.780762 76.401405,163.192505 64.282257,141.519623 
	C56.945263,128.398758 51.772579,114.485031 48.227837,99.797905 
	C48.124748,95.359344 47.715714,91.143257 47.306679,86.927170 
	C46.826210,86.980774 46.345741,87.034370 45.865276,87.087967 
	C46.070137,91.503296 46.275002,95.918617 46.463936,100.779465 
	C46.440910,117.344017 46.379471,133.463272 46.441166,149.582031 
	C46.510475,167.690643 46.690971,185.798813 46.673634,204.026489 
	C46.662857,204.445541 46.801548,204.745285 46.998619,205.450592 
	C48.456142,212.356079 49.450256,218.975204 51.322399,225.335922 
	C60.995644,258.201294 79.402107,285.943665 103.685875,309.517517 
	C121.664780,326.970856 141.085312,342.959198 160.133774,359.284973 
	C179.333939,375.740753 198.009308,392.727600 214.446854,411.974701 
	C233.009964,433.710663 248.232788,457.326233 253.571869,486.098419 
	C253.999329,488.402100 254.454453,490.700653 254.896729,493.001556 
	C255.351990,492.999359 255.807251,492.997131 256.262512,492.994904 
	C256.535919,491.692413 256.809357,490.389893 257.405212,488.894348 
	C258.113220,487.266602 258.410065,485.800995 258.898407,484.402191 
	C262.782593,473.276917 265.652679,461.646332 270.827271,451.153839 
	C282.213348,428.066254 298.799316,408.483856 317.338135,390.961914 
	C338.476562,370.982880 360.635376,352.047211 382.871643,333.275146 
	C409.967041,310.400909 434.018555,285.165039 449.907959,253.019516 
	C460.078491,232.443726 466.334106,210.935379 466.190338,187.734421 
	C466.000366,157.075317 466.128265,126.414238 466.119690,95.754013 
	C466.118988,93.222542 466.119598,90.691071 466.119598,88.159599 
	C464.968658,89.734703 464.628204,91.330772 464.482147,92.944427 
	C462.664490,113.026566 454.561249,130.945175 444.372375,147.821609 
	C431.490112,169.159424 415.362488,188.174637 397.170502,205.092346 
	C373.184174,227.398483 348.250061,248.685684 323.706787,270.392181 
	C321.090759,272.705872 318.363922,274.894257 315.144836,277.597229 
	C315.144836,267.715088 315.144836,258.928467 315.455139,250.021133 
	C321.948547,244.083878 328.752655,238.784500 334.144775,232.309250 
	C339.844788,225.464264 344.936127,217.873871 348.973328,209.937576 
	C355.345673,197.410782 354.615021,183.855560 350.533722,170.903580 
	C345.089722,153.626907 339.057373,136.485886 332.238556,119.708984 
	C327.379913,107.754868 320.808929,96.496719 315.034729,84.916000 
	C315.067383,84.904015 315.043549,84.838707 315.045471,84.496628 
	C314.407562,83.042938 313.767700,81.931328 313.089294,80.619263 
	C313.050690,80.418808 312.850616,80.062920 312.859711,79.705154 
	C310.984497,76.468735 309.100159,73.590073 307.134705,70.416336 
	C306.597717,69.452477 306.141785,68.783691 305.712341,67.806366 
	C305.211151,66.925430 304.683502,66.353043 304.088165,65.591980 
	C304.020477,65.403305 303.768555,65.091438 303.775177,64.750725 
	C302.607697,62.828724 301.433594,61.247440 300.126251,59.399475 
	C299.580200,58.454376 299.167419,57.775963 298.778259,56.794891 
	C298.274353,55.930180 297.746765,55.368130 297.173279,54.859779 
	C297.127380,54.913486 297.207520,54.813702 297.165527,54.551830 
	C296.873871,54.050037 296.624268,53.810116 296.272217,53.261528 
	C295.611176,52.027027 295.052582,51.101189 294.467041,49.842239 
	C293.079407,47.511997 291.718689,45.514858 290.278198,43.264885 
	C290.001587,42.720577 289.804779,42.429115 289.634827,41.816025 
	C288.878815,40.516476 288.095917,39.538559 287.205200,38.253891 
	C286.526825,37.030064 285.956238,36.112988 285.384827,34.887360 
	C284.644745,33.642715 283.905518,32.706623 283.109802,31.582132 
	C283.053345,31.393736 282.821075,31.076303 282.824585,30.734877 
	C281.697510,28.769545 280.566956,27.145638 279.315186,25.252644 
	C278.730835,24.348745 278.267639,23.713932 277.822998,22.776947 
	C277.333069,21.900892 276.824646,21.327011 276.250305,20.825413 
	C276.184448,20.897694 276.267761,20.720722 276.215088,20.467354 
	C275.907593,19.991213 275.652740,19.768438 275.283661,19.260078 
	C274.509674,17.947573 273.849884,16.920654 273.143311,15.567793 
	C272.382874,14.528401 271.669281,13.814952 270.742676,12.890638 
	C270.297455,12.130242 270.065247,11.580712 269.829651,10.682337 
	C268.972626,8.817344 268.119049,7.301196 267.253662,5.768017 
	C267.241852,5.750985 267.233826,5.709597 267.198303,5.353221 
	C266.775208,3.664563 266.387604,2.332280 266.000000,0.999998 
z"/>
<path fill="#FFFEF9" opacity="1.000000" stroke="none" 
	d="
M250.000000,1.000001 
	C253.692917,1.000000 257.385834,1.000000 261.618652,1.348399 
	C262.928955,3.578576 263.699310,5.460356 264.518982,7.742233 
	C264.977356,10.080414 265.359161,12.024712 265.799713,13.955612 
	C270.362305,33.952377 268.541260,52.853024 255.967468,69.723045 
	C253.864075,66.637215 252.006195,63.785095 250.116333,60.650097 
	C249.863647,60.065647 249.642944,59.764072 249.401398,59.206085 
	C249.241165,58.638058 249.101761,58.326454 248.988312,57.711357 
	C248.700699,56.914368 248.387100,56.420868 248.037140,55.953323 
	C248.000748,55.979275 248.088028,55.960152 248.089066,55.599072 
	C247.522690,53.664883 246.955276,52.091770 246.377258,50.162701 
	C246.159500,48.882507 245.952347,47.958275 245.815796,46.652512 
	C245.520584,44.507492 245.154785,42.743999 244.799500,40.660454 
	C244.723007,39.924118 244.635986,39.507839 244.645401,38.632881 
	C244.683395,34.419556 244.624985,30.664921 244.653595,26.603624 
	C244.750214,25.873281 244.759811,25.449600 244.895050,24.641989 
	C245.412643,21.130558 245.804581,18.003057 246.335754,14.578428 
	C246.527740,13.849303 246.580490,13.417307 246.820038,12.640861 
	C248.004547,8.530941 249.002274,4.765471 250.000000,1.000001 
z"/>
<path fill="#E28E57" opacity="1.000000" stroke="none" 
	d="
M249.625000,1.000001 
	C249.002274,4.765471 248.004547,8.530941 246.622025,12.362725 
	C246.402267,10.523206 246.567322,8.617373 246.745300,6.562327 
	C245.395035,7.455136 244.218369,8.233166 243.041718,9.011200 
	C244.357147,6.574885 245.672577,4.138566 246.994019,1.351123 
	C247.750000,1.000000 248.500000,1.000000 249.625000,1.000001 
z"/>
<path fill="#F7DC4F" opacity="1.000000" stroke="none" 
	d="
M264.469696,7.342136 
	C263.699310,5.460356 262.928955,3.578576 262.079285,1.348399 
	C263.066681,1.000000 264.133331,1.000000 265.600006,0.999998 
	C266.387604,2.332280 266.775208,3.664563 266.801208,5.462826 
	C265.782959,6.399917 265.126343,6.871027 264.469696,7.342136 
M264.473694,3.629369 
	C264.473694,3.629369 264.386871,3.489412 264.473694,3.629369 
z"/>
<path fill="#FED503" opacity="1.000000" stroke="none" 
	d="
M197.174042,250.837540 
	C186.080460,241.235870 175.644424,231.094498 167.627045,218.604568 
	C159.019897,205.195862 156.292511,190.682541 160.563660,175.627304 
	C165.179810,159.355957 170.816330,143.318207 176.980728,127.559143 
	C182.174850,114.280556 188.747238,101.539970 194.755356,88.582481 
	C195.447174,87.090477 196.433151,85.734863 197.623810,84.640198 
	C198.129868,94.608513 197.482712,104.351036 198.636429,113.875397 
	C200.748901,131.314545 210.890915,144.722534 223.660126,155.771774 
	C239.466110,169.448685 256.360229,181.861328 272.340759,195.345764 
	C281.960571,203.462997 290.856537,212.457977 299.855652,221.284958 
	C307.962891,229.237106 311.000214,240.014572 315.144836,250.141830 
	C315.144836,258.928467 315.144836,267.715088 315.144836,277.597229 
	C318.363922,274.894257 321.090759,272.705872 323.706787,270.392181 
	C348.250061,248.685684 373.184174,227.398483 397.170502,205.092346 
	C415.362488,188.174637 431.490112,169.159424 444.372375,147.821609 
	C454.561249,130.945175 462.664490,113.026566 464.482147,92.944427 
	C464.628204,91.330772 464.968658,89.734703 466.119598,88.159599 
	C466.119598,90.691071 466.118988,93.222542 466.119690,95.754013 
	C466.128265,126.414238 466.000366,157.075317 466.190338,187.734421 
	C466.334106,210.935379 460.078491,232.443726 449.907959,253.019516 
	C434.018555,285.165039 409.967041,310.400909 382.871643,333.275146 
	C360.635376,352.047211 338.476562,370.982880 317.338135,390.961914 
	C298.799316,408.483856 282.213348,428.066254 270.827271,451.153839 
	C265.652679,461.646332 262.782593,473.276917 258.898407,484.402191 
	C258.410065,485.800995 258.113220,487.266602 257.381348,488.420959 
	C256.703888,448.846497 256.372772,409.552399 256.208710,369.926697 
	C256.847961,368.935120 257.486328,368.338898 257.767548,367.605682 
	C262.515442,355.226196 267.327606,342.868835 271.817963,330.395844 
	C272.512726,328.465973 272.453888,325.524048 271.434814,323.843842 
	C266.552490,315.793915 261.219910,308.017059 256.003052,299.790955 
	C254.958572,298.148010 254.129181,296.665558 252.930542,295.597534 
	C245.006256,288.536774 237.254578,281.248596 228.960999,274.644470 
	C218.609787,266.401825 207.790970,258.746460 197.174042,250.837540 
z"/>
<path fill="#ED7223" opacity="1.000000" stroke="none" 
	d="
M197.036285,251.249908 
	C207.790970,258.746460 218.609787,266.401825 228.960999,274.644470 
	C237.254578,281.248596 245.006256,288.536774 252.930542,295.597534 
	C254.129181,296.665558 254.958572,298.148010 255.815796,300.057892 
	C250.630783,308.454590 245.391434,316.116241 240.701614,324.100677 
	C239.678574,325.842407 240.001022,328.959930 240.758011,331.064667 
	C245.025787,342.930908 249.601364,354.686798 254.114578,366.463989 
	C254.619446,367.781433 255.392792,368.996002 256.041626,370.258270 
	C256.372772,409.552399 256.703888,448.846497 257.058899,488.614014 
	C256.809357,490.389893 256.535919,491.692413 256.262512,492.994904 
	C255.807251,492.997131 255.351990,492.999359 254.896729,493.001556 
	C254.454453,490.700653 253.999329,488.402100 253.571869,486.098419 
	C248.232788,457.326233 233.009964,433.710663 214.446854,411.974701 
	C198.009308,392.727600 179.333939,375.740753 160.133774,359.284973 
	C141.085312,342.959198 121.664780,326.970856 103.685875,309.517517 
	C79.402107,285.943665 60.995644,258.201294 51.322399,225.335922 
	C49.450256,218.975204 48.456142,212.356079 47.054417,205.157318 
	C46.975582,204.274719 46.899338,204.090942 46.823097,203.907181 
	C46.690971,185.798813 46.510475,167.690643 46.441166,149.582031 
	C46.379471,133.463272 46.440910,117.344017 46.705605,100.734459 
	C47.272030,100.123383 47.591591,100.048866 47.921886,100.020378 
	C51.772579,114.485031 56.945263,128.398758 64.282257,141.519623 
	C76.401405,163.192505 92.372017,181.780762 109.526871,199.525909 
	C134.757172,225.624405 162.992203,248.347290 190.330017,272.082275 
	C192.277878,273.773407 194.221664,275.469269 196.898514,277.799377 
	C196.898514,268.375427 196.898514,260.018860 197.036285,251.249908 
z"/>
<path fill="#ED7222" opacity="1.000000" stroke="none" 
	d="
M315.455139,250.021133 
	C311.000214,240.014572 307.962891,229.237106 299.855652,221.284958 
	C290.856537,212.457977 281.960571,203.462997 272.340759,195.345764 
	C256.360229,181.861328 239.466110,169.448685 223.660126,155.771774 
	C210.890915,144.722534 200.748901,131.314545 198.636429,113.875397 
	C197.482712,104.351036 198.129868,94.608513 197.932068,84.503006 
	C202.470764,75.984833 206.850494,67.811615 211.654984,59.896225 
	C220.786743,44.851727 230.156891,29.951864 239.441422,15.000240 
	C240.552719,13.210630 241.747314,11.472741 242.972504,9.361040 
	C244.218369,8.233166 245.395035,7.455136 246.745300,6.562327 
	C246.567322,8.617373 246.402267,10.523206 246.435242,12.707175 
	C246.580490,13.417307 246.527740,13.849303 246.066635,14.771240 
	C245.362000,18.516094 245.065704,21.771006 244.769409,25.025917 
	C244.759811,25.449600 244.750214,25.873281 244.310242,26.759165 
	C244.102921,31.178099 244.325943,35.134830 244.548981,39.091564 
	C244.635986,39.507839 244.723007,39.924118 244.587555,40.930248 
	C244.825134,43.358082 245.285172,45.196060 245.745209,47.034039 
	C245.952347,47.958275 246.159500,48.882507 246.261780,50.547234 
	C246.800629,52.845200 247.444321,54.402676 248.088028,55.960152 
	C248.088028,55.960152 248.000748,55.979275 248.000641,56.262054 
	C248.321152,57.034840 248.641754,57.524841 248.962357,58.014847 
	C249.101761,58.326454 249.241165,58.638058 249.350876,59.516037 
	C249.596893,60.365936 249.872589,60.649460 250.148285,60.932980 
	C252.006195,63.785095 253.864075,66.637215 255.959778,70.076546 
	C257.957489,73.418198 259.400604,76.450317 261.530670,78.880302 
	C272.325073,91.194794 283.266052,103.381584 294.224030,115.551559 
	C298.509705,120.311218 302.973969,124.910011 307.356903,129.582077 
	C308.050079,129.394135 308.743286,129.206192 309.436493,129.018234 
	C310.648346,124.694122 311.860168,120.370003 313.326233,115.778969 
	C313.728882,114.030571 313.877289,112.549088 314.058655,110.678543 
	C314.112335,109.508980 314.133118,108.728477 314.284790,107.874931 
	C314.585266,107.665054 314.653809,107.488884 314.705933,106.800781 
	C314.769165,103.126518 314.747711,99.924850 314.782227,96.383698 
	C314.795044,95.129303 314.751923,94.214386 314.766541,92.836838 
	C314.883545,89.892120 314.942841,87.410057 315.002106,84.927994 
	C320.808929,96.496719 327.379913,107.754868 332.238556,119.708984 
	C339.057373,136.485886 345.089722,153.626907 350.533722,170.903580 
	C354.615021,183.855560 355.345673,197.410782 348.973328,209.937576 
	C344.936127,217.873871 339.844788,225.464264 334.144775,232.309250 
	C328.752655,238.784500 321.948547,244.083878 315.455139,250.021133 
z"/>
<path fill="#FDD405" opacity="1.000000" stroke="none" 
	d="
M314.726257,96.723190 
	C314.747711,99.924850 314.769165,103.126518 314.588257,106.875137 
	C314.256989,107.574524 314.179626,107.749817 314.153870,107.947968 
	C314.133118,108.728477 314.112335,109.508980 313.787079,110.925659 
	C313.345734,113.056511 313.208862,114.551201 313.071991,116.045883 
	C311.860168,120.370003 310.648346,124.694122 309.436493,129.018234 
	C308.743286,129.206192 308.050079,129.394135 307.356903,129.582077 
	C302.973969,124.910011 298.509705,120.311218 294.224030,115.551559 
	C283.266052,103.381584 272.325073,91.194794 261.530670,78.880302 
	C259.400604,76.450317 257.957489,73.418198 256.205261,70.310265 
	C268.541260,52.853024 270.362305,33.952377 265.799713,13.955612 
	C265.359161,12.024712 264.977356,10.080414 264.518982,7.742234 
	C265.126343,6.871027 265.782959,6.399917 266.836731,5.819201 
	C267.233826,5.709597 267.241852,5.750985 267.181549,6.116004 
	C268.025177,7.997740 268.929108,9.514459 269.833038,11.031179 
	C270.065247,11.580712 270.297455,12.130242 270.740356,13.223574 
	C271.697418,14.476158 272.443787,15.184943 273.190125,15.893732 
	C273.849884,16.920654 274.509674,17.947573 275.253754,19.555759 
	C275.647980,20.331593 275.957855,20.526159 276.267761,20.720724 
	C276.267761,20.720722 276.184448,20.897694 276.177002,21.148003 
	C276.714539,21.958580 277.259521,22.518848 277.804474,23.079119 
	C278.267639,23.713932 278.730835,24.348745 279.207062,25.615820 
	C280.420441,27.857491 281.620758,29.466898 282.821075,31.076305 
	C282.821075,31.076303 283.053345,31.393736 283.064209,31.908470 
	C283.845276,33.347435 284.615479,34.271667 285.385651,35.195908 
	C285.956238,36.112988 286.526825,37.030064 287.183411,38.591217 
	C288.048920,40.202751 288.828430,41.170204 289.607941,42.137657 
	C289.804779,42.429115 290.001587,42.720577 290.251556,43.632332 
	C291.701111,46.226868 293.097534,48.201111 294.493958,50.175350 
	C295.052582,51.101189 295.611176,52.027027 296.241699,53.556805 
	C296.611542,54.378399 296.909546,54.596054 297.207520,54.813705 
	C297.207520,54.813702 297.127380,54.913486 297.124542,55.179359 
	C297.666016,55.996002 298.210327,56.546772 298.754608,57.097546 
	C299.167419,57.775963 299.580200,58.454376 300.073090,59.760223 
	C301.358307,61.955582 302.563416,63.523510 303.768555,65.091438 
	C303.768555,65.091438 304.020477,65.403305 304.051758,65.910057 
	C304.617340,66.982841 305.151611,67.548874 305.685883,68.114906 
	C306.141785,68.783691 306.597717,69.452477 307.086914,70.790176 
	C309.030334,74.327034 310.940460,77.194977 312.850616,80.062927 
	C312.850616,80.062920 313.050690,80.418808 313.028900,81.005707 
	C313.685944,82.674637 314.364746,83.756668 315.043549,84.838699 
	C315.043549,84.838707 315.067383,84.904015 315.034729,84.916000 
	C314.942841,87.410057 314.883545,89.892120 314.586548,93.028091 
	C314.474609,94.695732 314.600433,95.709457 314.726257,96.723190 
z"/>
<path fill="#EFBD97" opacity="1.000000" stroke="none" 
	d="
M48.227837,99.797905 
	C47.591591,100.048866 47.272030,100.123383 46.721535,100.288940 
	C46.275002,95.918617 46.070137,91.503296 45.865276,87.087967 
	C46.345741,87.034370 46.826210,86.980774 47.306679,86.927170 
	C47.715714,91.143257 48.124748,95.359344 48.227837,99.797905 
z"/>
<path fill="#F7DC4F" opacity="1.000000" stroke="none" 
	d="
M312.859711,79.705162 
	C310.940460,77.194977 309.030334,74.327034 307.168030,71.085243 
	C309.100159,73.590073 310.984497,76.468735 312.859711,79.705162 
z"/>
<path fill="#F7DC4F" opacity="1.000000" stroke="none" 
	d="
M294.467041,49.842239 
	C293.097534,48.201111 291.701111,46.226868 290.331329,43.885174 
	C291.718689,45.514858 293.079407,47.511997 294.467041,49.842239 
z"/>
<path fill="#F7DC4F" opacity="1.000000" stroke="none" 
	d="
M282.824585,30.734879 
	C281.620758,29.466898 280.420441,27.857491 279.328247,25.884907 
	C280.566956,27.145638 281.697510,28.769545 282.824585,30.734879 
z"/>
<path fill="#F7DC4F" opacity="1.000000" stroke="none" 
	d="
M303.775177,64.750725 
	C302.563416,63.523510 301.358307,61.955582 300.206329,60.026905 
	C301.433594,61.247440 302.607697,62.828724 303.775177,64.750725 
z"/>
<path fill="#F7DC4F" opacity="1.000000" stroke="none" 
	d="
M269.829651,10.682333 
	C268.929108,9.514459 268.025177,7.997740 267.193359,6.133036 
	C268.119049,7.301196 268.972626,8.817344 269.829651,10.682333 
z"/>
<path fill="#F7DC4F" opacity="1.000000" stroke="none" 
	d="
M315.045471,84.496628 
	C314.364746,83.756668 313.685944,82.674637 313.067505,81.206161 
	C313.767700,81.931328 314.407562,83.042938 315.045471,84.496628 
z"/>
<path fill="#F7DC4F" opacity="1.000000" stroke="none" 
	d="
M285.384827,34.887356 
	C284.615479,34.271667 283.845276,33.347435 283.120667,32.096867 
	C283.905518,32.706623 284.644745,33.642715 285.384827,34.887356 
z"/>
<path fill="#F7DC4F" opacity="1.000000" stroke="none" 
	d="
M289.634827,41.816029 
	C288.828430,41.170204 288.048920,40.202751 287.291229,38.897964 
	C288.095917,39.538559 288.878815,40.516476 289.634827,41.816029 
z"/>
<path fill="#F7DC4F" opacity="1.000000" stroke="none" 
	d="
M273.143311,15.567789 
	C272.443787,15.184943 271.697418,14.476158 270.953369,13.434439 
	C271.669281,13.814952 272.382874,14.528401 273.143311,15.567789 
z"/>
<path fill="#F7DC4F" opacity="1.000000" stroke="none" 
	d="
M305.712341,67.806366 
	C305.151611,67.548874 304.617340,66.982841 304.119446,66.098732 
	C304.683502,66.353043 305.211151,66.925430 305.712341,67.806366 
z"/>
<path fill="#F7DC4F" opacity="1.000000" stroke="none" 
	d="
M298.778259,56.794884 
	C298.210327,56.546772 297.666016,55.996002 297.170471,55.125656 
	C297.746765,55.368130 298.274353,55.930180 298.778259,56.794884 
z"/>
<path fill="#F7DC4F" opacity="1.000000" stroke="none" 
	d="
M277.822998,22.776945 
	C277.259521,22.518848 276.714539,21.958580 276.242889,21.075722 
	C276.824646,21.327011 277.333069,21.900892 277.822998,22.776945 
z"/>
<path fill="#EFBD97" opacity="1.000000" stroke="none" 
	d="
M46.673634,204.026489 
	C46.899338,204.090942 46.975582,204.274719 46.996033,204.751770 
	C46.801548,204.745285 46.662857,204.445541 46.673634,204.026489 
z"/>
<path fill="#F7DC4F" opacity="1.000000" stroke="none" 
	d="
M297.165527,54.551834 
	C296.909546,54.596054 296.611542,54.378399 296.344116,53.865471 
	C296.624268,53.810116 296.873871,54.050037 297.165527,54.551834 
z"/>
<path fill="#F7DC4F" opacity="1.000000" stroke="none" 
	d="
M276.215088,20.467358 
	C275.957855,20.526159 275.647980,20.331593 275.367981,19.841345 
	C275.652740,19.768438 275.907593,19.991213 276.215088,20.467358 
z"/>
<path fill="#E28E57" opacity="1.000000" stroke="none" 
	d="
M244.645401,38.632881 
	C244.325943,35.134830 244.102921,31.178099 244.223236,27.065825 
	C244.624985,30.664921 244.683395,34.419556 244.645401,38.632881 
z"/>
<path fill="#E28E57" opacity="1.000000" stroke="none" 
	d="
M244.895050,24.641989 
	C245.065704,21.771006 245.362000,18.516094 245.927399,15.068369 
	C245.804581,18.003057 245.412643,21.130558 244.895050,24.641989 
z"/>
<path fill="#E28E57" opacity="1.000000" stroke="none" 
	d="
M245.815796,46.652512 
	C245.285172,45.196060 244.825134,43.358082 244.577026,41.250305 
	C245.154785,42.743999 245.520584,44.507492 245.815796,46.652512 
z"/>
<path fill="#E28E57" opacity="1.000000" stroke="none" 
	d="
M248.089066,55.599072 
	C247.444321,54.402676 246.800629,52.845200 246.272400,50.903191 
	C246.955276,52.091770 247.522690,53.664883 248.089066,55.599072 
z"/>
<path fill="#E28E57" opacity="1.000000" stroke="none" 
	d="
M248.988312,57.711357 
	C248.641754,57.524841 248.321152,57.034840 248.037033,56.236099 
	C248.387100,56.420868 248.700699,56.914368 248.988312,57.711357 
z"/>
<path fill="#E28E57" opacity="1.000000" stroke="none" 
	d="
M250.116318,60.650101 
	C249.872589,60.649460 249.596893,60.365936 249.371704,59.772457 
	C249.642944,59.764072 249.863647,60.065647 250.116318,60.650101 
z"/>
<path fill="#FDD405" opacity="1.000000" stroke="none" 
	d="
M264.430298,3.559390 
	C264.386871,3.489412 264.473694,3.629369 264.430298,3.559390 
z"/>
<path fill="#FFFDF9" opacity="1.000000" stroke="none" 
	d="
M256.208710,369.926697 
	C255.392792,368.996002 254.619446,367.781433 254.114578,366.463989 
	C249.601364,354.686798 245.025787,342.930908 240.758011,331.064667 
	C240.001022,328.959930 239.678574,325.842407 240.701614,324.100677 
	C245.391434,316.116241 250.630783,308.454590 255.860107,300.410095 
	C261.219910,308.017059 266.552490,315.793915 271.434814,323.843842 
	C272.453888,325.524048 272.512726,328.465973 271.817963,330.395844 
	C267.327606,342.868835 262.515442,355.226196 257.767548,367.605682 
	C257.486328,368.338898 256.847961,368.935120 256.208710,369.926697 
z"/>
<path fill="#F7DC4F" opacity="1.000000" stroke="none" 
	d="
M313.326233,115.778969 
	C313.208862,114.551201 313.345734,113.056511 313.754150,111.314713 
	C313.877289,112.549088 313.728882,114.030571 313.326233,115.778969 
z"/>
<path fill="#F7DC4F" opacity="1.000000" stroke="none" 
	d="
M314.782227,96.383698 
	C314.600433,95.709457 314.474609,94.695732 314.528809,93.490738 
	C314.751923,94.214386 314.795044,95.129303 314.782227,96.383698 
z"/>
<path fill="#F7DC4F" opacity="1.000000" stroke="none" 
	d="
M314.284790,107.874931 
	C314.179626,107.749817 314.256989,107.574524 314.503601,107.347733 
	C314.653809,107.488884 314.585266,107.665054 314.284790,107.874931 
z"/>
</svg>